<svg width="15" height="13" viewBox="0 0 15 13" fill="none" xmlns="http://www.w3.org/2000/svg">
<path d="M14.0624 12.8744H0.934878C0.681818 12.8744 0.447984 12.7393 0.321457 12.5202C0.19493 12.301 0.194931 12.031 0.321461 11.8119L6.88488 0.478523C7.01151 0.259727 7.24514 0.125 7.49794 0.125C7.75074 0.125 7.98437 0.259727 8.111 0.478523L14.6744 11.8119C14.8009 12.0309 14.801 12.3008 14.6746 12.5199C14.5482 12.739 14.3146 12.8741 14.0617 12.8744H14.0624ZM6.79067 9.33269V10.7494H7.45154H7.49759H7.54363H8.20592V9.33269H6.79067ZM6.79067 4.37436V7.91602H8.20734V4.37436H6.79067Z" fill="white"/>
</svg>