<svg width="13" height="14" viewBox="0 0 13 14" fill="none" xmlns="http://www.w3.org/2000/svg">
<path d="M6.4987 13.8763C3.36908 13.8763 0.832031 11.3392 0.832031 8.20964C0.832031 5.08002 3.36908 2.54297 6.4987 2.54297C9.62831 2.54297 12.1654 5.08002 12.1654 8.20964C12.1619 11.3378 9.62685 13.8728 6.4987 13.8763ZM6.4987 3.95964C4.15149 3.95964 2.2487 5.86242 2.2487 8.20964C2.2487 10.5568 4.15149 12.4596 6.4987 12.4596C8.84591 12.4596 10.7487 10.5568 10.7487 8.20964C10.746 5.86356 8.84478 3.96237 6.4987 3.95964ZM7.20703 8.91797H5.79036V5.3763H7.20703V8.91797ZM11.6646 4.46043L10.2479 3.04376L11.2495 2.04218L12.6662 3.45884L11.6653 4.45972L11.6646 4.46043ZM8.6237 1.83464H4.3737V0.417969H8.6237V1.83464Z" fill="white"/>
</svg>