<svg width="15" height="16" viewBox="0 0 15 16" fill="none" xmlns="http://www.w3.org/2000/svg">
<g clip-path="url(#clip0_235_739)">
<rect width="15" height="15" transform="translate(0 0.5)" fill="white"/>
<path fill-rule="evenodd" clip-rule="evenodd" d="M4.29156 12.0095L6.25685 12.4969V11.8595L6.41728 11.7096H7.54028V12.4594V12.9842H6.33707L4.85307 12.3844L4.29156 12.0095Z" fill="#CDBDB2"/>
<path fill-rule="evenodd" clip-rule="evenodd" d="M10.7085 12.0095L8.78335 12.4969V11.8595L8.62292 11.7096H7.49992V12.4594V12.9842H8.70314L10.1871 12.3844L10.7085 12.0095Z" fill="#CDBDB2"/>
<path fill-rule="evenodd" clip-rule="evenodd" d="M6.41714 10.6217L6.25671 11.8589L6.45721 11.7089H8.54278L8.78343 11.8589L8.623 10.6217L8.30214 10.4342L6.69786 10.4718L6.41714 10.6217Z" fill="#393939"/>
<path fill-rule="evenodd" clip-rule="evenodd" d="M5.33411 2.26224L6.29668 4.36167L6.73789 10.4726H8.30203L8.78332 4.36167L9.66568 2.26224H5.33411Z" fill="#F89C35"/>
<path fill-rule="evenodd" clip-rule="evenodd" d="M1.123 6.87326L0 9.90992L2.8075 9.75996H4.61229V8.44784L4.53207 5.74857L4.131 6.04849L1.123 6.87326Z" fill="#F89D35"/>
<path fill-rule="evenodd" clip-rule="evenodd" d="M3.24878 7.21066L6.53757 7.28564L6.17664 8.86022L4.61242 8.48532L3.24878 7.21066Z" fill="#D87C30"/>
<path fill-rule="evenodd" clip-rule="evenodd" d="M3.24878 7.2482L4.61242 8.44788V9.64756L3.24878 7.2482Z" fill="#EA8D3A"/>
<path fill-rule="evenodd" clip-rule="evenodd" d="M4.61218 8.48508L6.21647 8.85998L6.7379 10.4721L6.3769 10.6595L4.61218 9.68475V8.48508Z" fill="#F89D35"/>
<path fill-rule="evenodd" clip-rule="evenodd" d="M4.61242 9.68442L4.29156 12.0088L6.41728 10.6217L4.61242 9.68442Z" fill="#EB8F35"/>
<path fill-rule="evenodd" clip-rule="evenodd" d="M6.53742 7.28574L6.73799 10.4724L6.13635 8.84159L6.53742 7.28574Z" fill="#EA8E3A"/>
<path fill-rule="evenodd" clip-rule="evenodd" d="M2.7674 9.72194L4.61232 9.68442L4.29147 12.0088L2.7674 9.72194Z" fill="#D87C30"/>
<path fill-rule="evenodd" clip-rule="evenodd" d="M0.882357 13.0211L4.29143 12.0088L2.76736 9.72195L0 9.90937L0.882357 13.0211Z" fill="#EB8F35"/>
<path fill-rule="evenodd" clip-rule="evenodd" d="M6.29692 4.36154L4.57235 5.71118L3.24878 7.21078L6.53757 7.32328L6.29692 4.36154Z" fill="#E8821E"/>
<path fill-rule="evenodd" clip-rule="evenodd" d="M4.29156 12.009L6.41728 10.6219L6.25685 11.8216V12.4964L4.81299 12.234L4.29156 12.009Z" fill="#DFCEC3"/>
<path fill-rule="evenodd" clip-rule="evenodd" d="M10.7085 12.009L8.62292 10.6219L8.78335 11.8216V12.4964L10.2272 12.234L10.7085 12.009Z" fill="#DFCEC3"/>
<path fill-rule="evenodd" clip-rule="evenodd" d="M5.65504 7.96048L6.09625 8.82278L4.53204 8.44788L5.65504 7.96048Z" fill="#393939"/>
<path fill-rule="evenodd" clip-rule="evenodd" d="M0.842285 0.499939L6.29686 4.36137L5.37443 2.26193L0.842285 0.499939Z" fill="#E88F35"/>
<path fill-rule="evenodd" clip-rule="evenodd" d="M0.842107 0.499939L0.120178 2.56189L0.52125 4.81128L0.2405 4.96124L0.641571 5.29865L0.320714 5.56108L0.761893 5.93598L0.481143 6.16092L1.12286 6.91072L4.13089 6.04845C5.60149 4.94875 6.32342 4.3864 6.29668 4.3614C6.26994 4.33641 4.45175 3.04925 0.842107 0.499939Z" fill="#8E5A30"/>
<path fill-rule="evenodd" clip-rule="evenodd" d="M13.877 6.87311L15 9.90976L12.1925 9.7598H10.3877V8.44769L10.4679 5.74841L10.869 6.04833L13.877 6.87311Z" fill="#F89D35"/>
<path fill-rule="evenodd" clip-rule="evenodd" d="M11.7513 7.21051L8.4625 7.28549L8.82343 8.86007L10.3876 8.48517L11.7513 7.21051Z" fill="#D87C30"/>
<path fill-rule="evenodd" clip-rule="evenodd" d="M11.7513 7.24805L10.3876 8.44772V9.6474L11.7513 7.24805Z" fill="#EA8D3A"/>
<path fill-rule="evenodd" clip-rule="evenodd" d="M10.3878 8.48492L8.78353 8.85982L8.2621 10.4719L8.6231 10.6593L10.3878 9.6846V8.48492Z" fill="#F89D35"/>
<path fill-rule="evenodd" clip-rule="evenodd" d="M10.3876 9.68427L10.7085 12.0086L8.62292 10.659L10.3876 9.68427Z" fill="#EB8F35"/>
<path fill-rule="evenodd" clip-rule="evenodd" d="M8.46258 7.28558L8.262 10.4723L8.86365 8.84143L8.46258 7.28558Z" fill="#EA8E3A"/>
<path fill-rule="evenodd" clip-rule="evenodd" d="M12.2326 9.72179L10.3877 9.68427L10.7085 12.0086L12.2326 9.72179Z" fill="#D87C30"/>
<path fill-rule="evenodd" clip-rule="evenodd" d="M14.1176 13.0209L10.7086 12.0087L12.2326 9.7218L15 9.90922L14.1176 13.0209Z" fill="#EB8F35"/>
<path fill-rule="evenodd" clip-rule="evenodd" d="M8.70314 4.36139L10.4277 5.71103L11.7513 7.21062L8.4625 7.32313L8.70314 4.36139Z" fill="#E8821E"/>
<path fill-rule="evenodd" clip-rule="evenodd" d="M9.34496 7.96033L8.90375 8.82263L10.468 8.44773L9.34496 7.96033Z" fill="#393939"/>
<path fill-rule="evenodd" clip-rule="evenodd" d="M14.1577 0.499878L8.70314 4.36131L9.62557 2.26187L14.1577 0.499878Z" fill="#E88F35"/>
<path fill-rule="evenodd" clip-rule="evenodd" d="M14.1579 0.499878L14.8798 2.56182L14.4788 4.81122L14.7595 4.96118L14.3584 5.29859L14.6793 5.56102L14.2381 5.93592L14.5189 6.16086L13.8771 6.91066L10.8691 6.04839C9.39851 4.94868 8.67658 4.38634 8.70332 4.36134C8.73005 4.33635 10.5482 3.04919 14.1579 0.499878Z" fill="#8E5A30"/>
</g>
<defs>
<clipPath id="clip0_235_739">
<rect width="15" height="15" fill="white" transform="translate(0 0.5)"/>
</clipPath>
</defs>
</svg>
