<svg width="15" height="10" viewBox="0 0 15 10" fill="none" xmlns="http://www.w3.org/2000/svg">
<path d="M3.00527 1.76295C5.39711 -0.587649 9.27418 -0.587649 11.6691 1.76295L11.9569 2.04551C12.0775 2.16351 12.0775 2.35292 11.9569 2.47092L10.9729 3.43973C10.9141 3.49872 10.8151 3.49872 10.7563 3.43973L10.3603 3.05158C8.69246 1.41206 5.98501 1.41206 4.31722 3.05158L3.89331 3.46767C3.83452 3.52667 3.73551 3.52667 3.67672 3.46767L2.68966 2.49887C2.56898 2.38087 2.56898 2.19146 2.68966 2.07346L3.00527 1.76295ZM13.7051 3.76266L14.5808 4.62279C14.7015 4.74078 14.7015 4.9302 14.5808 5.04819L10.6294 8.93273C10.5088 9.05072 10.3169 9.05072 10.1963 8.93273L7.38979 6.17536C7.35885 6.14741 7.31244 6.14741 7.28149 6.17536L4.47812 8.93273C4.35745 9.05072 4.16561 9.05072 4.04493 8.93273L0.0905062 5.0513C-0.0301687 4.9333 -0.0301687 4.74389 0.0905062 4.62589L0.966173 3.76577C1.08685 3.64777 1.27869 3.64777 1.39936 3.76577L4.20583 6.52314C4.23677 6.55108 4.28319 6.55108 4.31413 6.52314L7.1175 3.76577C7.23817 3.64777 7.43002 3.64777 7.55069 3.76577L10.3572 6.52314C10.3881 6.55108 10.4345 6.55108 10.4655 6.52314L13.2719 3.76577C13.3895 3.64466 13.5844 3.64466 13.7051 3.76266Z" fill="#3A99FB"/>
</svg>
