<svg width="14" height="14" viewBox="0 0 14 14" fill="none" xmlns="http://www.w3.org/2000/svg">
<path d="M1 7C1 3.68629 3.68629 1 7 1C10.3137 1 13 3.68629 13 7C13 10.3137 10.3137 13 7 13C3.68629 13 1 10.3137 1 7Z" fill="white"/>
<path d="M2.13864 7.4438L4.49501 9.80017L5.08251 9.2085L2.72822 6.85423L2.13864 7.4438ZM11.2697 4.20049L6.85334 8.621L5.08798 6.85148L4.49215 7.43898L6.85334 9.80017L11.8614 4.79215L11.2697 4.20049ZM9.50368 4.7915L8.91618 4.19983L6.26167 6.85434L6.85334 7.44184L9.50368 4.7915Z" fill="#D9304F"/>
<path d="M7 12C4.23858 12 2 9.76142 2 7H0C0 10.866 3.13401 14 7 14V12ZM12 7C12 9.76142 9.76142 12 7 12V14C10.866 14 14 10.866 14 7H12ZM7 2C9.76142 2 12 4.23858 12 7H14C14 3.13401 10.866 0 7 0V2ZM7 0C3.13401 0 0 3.13401 0 7H2C2 4.23858 4.23858 2 7 2V0Z" fill="#D9304F"/>
</svg>
