<svg width="14" height="14" viewBox="0 0 14 14" fill="none" xmlns="http://www.w3.org/2000/svg">
<path d="M1 7C1 3.68629 3.68629 1 7 1C10.3137 1 13 3.68629 13 7C13 10.3137 10.3137 13 7 13C3.68629 13 1 10.3137 1 7Z" fill="white"/>
<path d="M9.91667 10.75H6.16667C5.70643 10.75 5.33333 10.3769 5.33333 9.91667V8.25H6.16667V9.91667H9.91667V4.08333H6.16667V5.75H5.33333V4.08333C5.33333 3.6231 5.70643 3.25 6.16667 3.25H9.91667C10.3769 3.25 10.75 3.6231 10.75 4.08333V9.91667C10.75 10.3769 10.3769 10.75 9.91667 10.75ZM7 8.66667V7.41667H3.25V6.58333H7V5.33333L9.08333 7L7 8.66667Z" fill="#919191"/>
<path d="M7 12C4.23858 12 2 9.76142 2 7H0C0 10.866 3.13401 14 7 14V12ZM12 7C12 9.76142 9.76142 12 7 12V14C10.866 14 14 10.866 14 7H12ZM7 2C9.76142 2 12 4.23858 12 7H14C14 3.13401 10.866 0 7 0V2ZM7 0C3.13401 0 0 3.13401 0 7H2C2 4.23858 4.23858 2 7 2V0Z" fill="#919191"/>
</svg>
