<svg width="14" height="14" viewBox="0 0 14 14" fill="none" xmlns="http://www.w3.org/2000/svg">
<path d="M1 7C1 3.68629 3.68629 1 7 1C10.3137 1 13 3.68629 13 7C13 10.3137 10.3137 13 7 13C3.68629 13 1 10.3137 1 7Z" fill="white"/>
<path d="M9.96667 7.09375L7 2L4.03125 7.09375L7 8.90625L9.96667 7.09375Z" fill="#919191"/>
<path d="M7 12L9.96875 7.67584L7 9.48834L4.03125 7.67584L7 12Z" fill="#919191"/>
<path d="M7 12C4.23858 12 2 9.76142 2 7H0C0 10.866 3.13401 14 7 14V12ZM12 7C12 9.76142 9.76142 12 7 12V14C10.866 14 14 10.866 14 7H12ZM7 2C9.76142 2 12 4.23858 12 7H14C14 3.13401 10.866 0 7 0V2ZM7 0C3.13401 0 0 3.13401 0 7H2C2 4.23858 4.23858 2 7 2V0Z" fill="#919191"/>
</svg>
