<svg width="15" height="15" viewBox="0 0 24 24" fill="none" xmlns="http://www.w3.org/2000/svg">
<path d="M20.8 8.69998H10.9C9.68498 8.69998 8.7 9.68496 8.7 10.9V20.8C8.7 22.015 9.68498 23 10.9 23H20.8C22.015 23 23 22.015 23 20.8V10.9C23 9.68496 22.015 8.69998 20.8 8.69998Z" stroke="#747376" stroke-width="2" stroke-linecap="round" stroke-linejoin="round"/>
<path d="M4.3 15.3H3.2C2.61652 15.3 2.05695 15.0682 1.64437 14.6556C1.23178 14.2431 1 13.6835 1 13.1V3.2C1 2.61652 1.23178 2.05695 1.64437 1.64437C2.05695 1.23178 2.61652 1 3.2 1H13.1C13.6835 1 14.2431 1.23178 14.6556 1.64437C15.0682 2.05695 15.3 2.61652 15.3 3.2V4.3" stroke="#747376" stroke-width="2" stroke-linecap="round" stroke-linejoin="round"/>
</svg>
