<svg width="512" height="512" viewBox="0 0 512 512" fill="none" xmlns="http://www.w3.org/2000/svg">
<rect width="512" height="512" fill="#D9304F"/>
<path d="M480.839 290.011C381.862 427.516 345.173 299.516 285.43 299.516C262.075 299.516 255.942 318.28 255.942 326.505C255.942 318.335 249.809 299.516 226.455 299.516C166.685 299.516 130.023 427.516 31.0184 289.984C29.1292 440.86 173.393 476.537 255.942 382.171C338.492 476.537 482.756 440.888 480.839 290.011Z" fill="white"/>
<path d="M469.285 233.419C458.196 239.356 445.93 245.211 435.444 249.759C431.982 251.227 428.255 251.977 424.492 251.965H87.4207C83.6571 251.98 79.9301 251.23 76.4689 249.759C65.9825 245.265 53.7164 239.41 42.6002 233.419C41.6139 232.894 40.8406 232.045 40.4114 231.018C39.9822 229.99 39.9236 228.847 40.2456 227.781C41.5598 223.397 44.0787 215.635 47.6381 206.974C47.8943 206.353 48.2768 205.791 48.7617 205.324C49.2465 204.856 49.8232 204.494 50.4556 204.258C51.088 204.023 51.7625 203.92 52.4367 203.957C53.1108 203.993 53.7702 204.167 54.3735 204.469C65.1611 209.916 73.7583 213.783 81.7531 217.16V151.798C81.7545 150.652 82.1616 149.543 82.9031 148.666C104.011 123.422 130.446 103.109 160.332 89.168C190.219 75.227 222.824 68 255.833 68C288.843 68 321.448 75.227 351.334 89.168C381.22 103.109 407.655 123.422 428.763 148.666C429.505 149.543 429.912 150.652 429.913 151.798V217.16C437.963 213.783 446.56 209.916 457.293 204.469C457.893 204.163 458.551 203.986 459.225 203.948C459.898 203.91 460.572 204.012 461.203 204.248C461.835 204.484 462.41 204.848 462.891 205.317C463.373 205.787 463.751 206.351 464.001 206.974C467.588 215.635 470.079 223.315 471.393 227.781C471.731 228.82 471.707 229.941 471.324 230.964C470.942 231.988 470.223 232.852 469.285 233.419Z" fill="white"/>
</svg>
