<svg width="21" height="18" viewBox="0 0 21 18" fill="none" xmlns="http://www.w3.org/2000/svg">
<path d="M8.65869 1.84382L1.23491 14.2372C1.08185 14.5023 1.00086 14.8028 1.00001 15.1089C0.99915 15.415 1.07845 15.716 1.23003 15.9819C1.3816 16.2478 1.60016 16.4694 1.86397 16.6246C2.12777 16.7799 2.42762 16.8633 2.73369 16.8667H17.5812C17.8873 16.8633 18.1872 16.7799 18.451 16.6246C18.7148 16.4694 18.9333 16.2478 19.0849 15.9819C19.2365 15.716 19.3158 15.415 19.3149 15.1089C19.3141 14.8028 19.2331 14.5023 19.08 14.2372L11.6562 1.84382C11.5 1.58623 11.28 1.37326 11.0175 1.22545C10.7549 1.07765 10.4587 1 10.1575 1C9.85619 1 9.56 1.07765 9.29747 1.22545C9.03494 1.37326 8.81494 1.58623 8.65869 1.84382V1.84382Z" stroke="#FF6442" stroke-width="1.5" stroke-linecap="round" stroke-linejoin="round"/>
<path d="M10.1577 6.34888V9.85479" stroke="#FF6442" stroke-width="1.5" stroke-linecap="round" stroke-linejoin="round"/>
<path d="M10.1577 13.3608H10.1644" stroke="#FF6442" stroke-width="1.5" stroke-linecap="round" stroke-linejoin="round"/>
</svg>
