<svg width="32" height="32" viewBox="0 0 32 32" fill="none" xmlns="http://www.w3.org/2000/svg">
<rect width="32" height="32" rx="16" fill="#E3E3E3"/>
<path d="M21.5001 17.8333C20.4876 17.8333 19.6667 17.0125 19.6667 16C19.6667 14.9874 20.4876 14.1666 21.5001 14.1666C22.5126 14.1666 23.3334 14.9874 23.3334 16C23.3334 16.4862 23.1403 16.9525 22.7964 17.2963C22.4526 17.6401 21.9863 17.8333 21.5001 17.8333ZM16.0001 17.8333C14.9876 17.8333 14.1667 17.0125 14.1667 16C14.1667 14.9874 14.9876 14.1666 16.0001 14.1666C17.0126 14.1666 17.8334 14.9874 17.8334 16C17.8334 16.4862 17.6403 16.9525 17.2964 17.2963C16.9526 17.6401 16.4863 17.8333 16.0001 17.8333ZM10.5001 17.8333C9.48756 17.8333 8.66675 17.0125 8.66675 16C8.66675 14.9874 9.48756 14.1666 10.5001 14.1666C11.5126 14.1666 12.3334 14.9874 12.3334 16C12.3334 16.4862 12.1403 16.9525 11.7964 17.2963C11.4526 17.6401 10.9863 17.8333 10.5001 17.8333Z" fill="white"/>
</svg>
