<svg width="13" height="14" viewBox="0 0 13 14" fill="none" xmlns="http://www.w3.org/2000/svg">
<path d="M1.04998 13.75C0.92205 13.7521 0.794866 13.7302 0.674977 13.6855L6.71548 7.64275L8.71498 9.6445L1.77373 13.5445C1.55385 13.6734 1.30477 13.7441 1.04998 13.75ZM0.176977 13.2512C0.0541854 13.0289 -0.00692401 12.7777 -2.33552e-05 12.5237V1.495C-0.00103701 1.32758 0.0242719 1.16105 0.0749766 1.0015L6.24973 7.17775L0.174727 13.2527L0.176977 13.2512ZM9.31123 9.30775L7.18048 7.1785L9.53023 4.8295L11.6175 6.00175C12.0181 6.18106 12.2862 6.56788 12.3135 7.006C12.2864 7.44456 12.0179 7.83178 11.6167 8.011L9.31123 9.30775ZM6.71548 6.7105L0.460477 0.456248C0.632216 0.329256 0.840135 0.26065 1.05373 0.260498C1.30598 0.269455 1.55208 0.340836 1.76998 0.468248L8.93323 4.49425L6.71623 6.7105H6.71548Z" fill="#588CA3"/>
</svg>
