<svg width="19" height="20" viewBox="0 0 19 20" fill="none" xmlns="http://www.w3.org/2000/svg">
<path d="M14.5 6.4C15.9912 6.4 17.2 5.19117 17.2 3.7C17.2 2.20883 15.9912 1 14.5 1C13.0088 1 11.8 2.20883 11.8 3.7C11.8 5.19117 13.0088 6.4 14.5 6.4Z" stroke="#E3E3E3" stroke-width="2" stroke-linecap="round" stroke-linejoin="round"/>
<path d="M3.7 12.7C5.19117 12.7 6.4 11.4912 6.4 10C6.4 8.50883 5.19117 7.3 3.7 7.3C2.20883 7.3 1 8.50883 1 10C1 11.4912 2.20883 12.7 3.7 12.7Z" stroke="#E3E3E3" stroke-width="2" stroke-linecap="round" stroke-linejoin="round"/>
<path d="M14.5 19C15.9912 19 17.2 17.7912 17.2 16.3C17.2 14.8088 15.9912 13.6 14.5 13.6C13.0088 13.6 11.8 14.8088 11.8 16.3C11.8 17.7912 13.0088 19 14.5 19Z" stroke="#E3E3E3" stroke-width="2" stroke-linecap="round" stroke-linejoin="round"/>
<path d="M6.03099 11.359L12.178 14.941" stroke="#E3E3E3" stroke-width="2" stroke-linecap="round" stroke-linejoin="round"/>
<path d="M12.169 5.059L6.03099 8.641" stroke="#E3E3E3" stroke-width="2" stroke-linecap="round" stroke-linejoin="round"/>
</svg>
