<svg xmlns="http://www.w3.org/2000/svg" xmlns:xlink="http://www.w3.org/1999/xlink" id="body_1" width="20" height="20">

<g transform="matrix(0.8333334 0 0 0.8333334 0 0)">
	<g>
        <path d="M6.45026 17.7071L7.95019 15.8429L3.12162 12.0012L7.95019 8.15949L6.45026 6.29533L0.450542 11.0691C 0.309963 11.1809 0.196475 11.3227 0.118485 11.4841C 0.0404948 11.6454 0 11.8222 0 12.0012C 0 12.1802 0.0404948 12.3569 0.118485 12.5183C 0.196475 12.6796 0.309963 12.8215 0.450542 12.9333L0.450542 12.9333L6.45026 17.7071zM17.5497 6.29533L16.0498 8.15949L20.8784 12.0012L16.0498 15.8429L17.5497 17.7071L23.5495 12.9333C 23.69 12.8215 23.8035 12.6796 23.8815 12.5183C 23.9595 12.3569 24 12.1802 24 12.0012C 24 11.8222 23.9595 11.6454 23.8815 11.4841C 23.8035 11.3227 23.69 11.1809 23.5495 11.0691L23.5495 11.0691L17.5497 6.29533z" stroke="none" fill="#919191" fill-rule="nonzero"/>
        <path transform="matrix(0.9764762 0.21562503 -0.21562503 0.9764762 0.52143383 -2.7796018)" d="M13 1L15.5 1L15.5 23L13 23z" stroke="none" fill="#919191" fill-rule="nonzero"/>
	</g>
</g>
</svg>
