<svg width="7" height="8" viewBox="0 0 7 8" fill="none" xmlns="http://www.w3.org/2000/svg">
<path d="M1.22241 7.2153C1.55219 7.49156 1.94273 7.68574 2.36204 7.78192C2.40216 7.79505 2.42916 7.74255 2.40216 7.7163C1.50404 6.85942 1.99754 5.93205 2.36204 5.51392C2.62191 5.21542 2.99204 4.7238 2.96504 4.06455C2.96504 3.99855 3.03254 3.94567 3.08579 3.98542C3.59541 4.24905 3.94379 4.82917 4.03754 5.30355C4.18529 5.1588 4.23891 4.93455 4.23891 4.73692C4.23891 4.67092 4.31916 4.61805 4.38629 4.67092C4.86891 5.10592 5.69991 6.5823 4.35929 7.74217C4.33266 7.7688 4.35929 7.82167 4.38629 7.80855C4.79279 7.70198 5.17508 7.51841 5.51241 7.2678C7.69754 5.5803 6.27629 2.5878 5.35116 1.5993C5.23079 1.48042 5.01629 1.55955 5.01629 1.73092C5.00279 2.08717 4.89554 2.48242 4.61429 2.74605C4.39979 1.8498 3.68504 0.831673 2.66616 0.330673C2.53229 0.264673 2.37141 0.370048 2.38491 0.515173C2.41116 1.74142 1.61129 2.52217 0.914163 3.5373C0.297288 4.44667 -0.104712 6.12105 1.22241 7.2153Z" fill="white"/>
</svg>
