<svg width="10" height="8" viewBox="0 0 10 8" fill="none" xmlns="http://www.w3.org/2000/svg">
<path d="M7.9168 7.33322H2.50013C1.19778 7.33399 0.113 6.33482 0.00694557 5.0368C-0.0991086 3.73878 0.809096 2.57678 2.09429 2.36613C2.68584 1.31734 3.79601 0.668014 5.00013 0.666527C5.75097 0.663689 6.48031 0.917093 7.06763 1.38488C7.64433 1.84233 8.05434 2.47696 8.2343 3.19072C9.31092 3.35615 10.0784 4.32302 9.99514 5.40909C9.9119 6.49517 9.00606 7.33379 7.9168 7.33322ZM5.00013 1.49988C4.09667 1.50095 3.26374 1.98826 2.82013 2.7753L2.62513 3.12488L2.22971 3.18947C1.37566 3.33255 0.773465 4.10584 0.843967 4.96892C0.914468 5.83199 1.63418 6.4973 2.50013 6.49989H7.9168C8.57037 6.50056 9.11413 5.99763 9.16438 5.346C9.21464 4.69436 8.75441 4.11401 8.10846 4.01447L7.56013 3.93113L7.42596 3.3928C7.14899 2.27897 6.14788 1.49778 5.00013 1.49988ZM5.6043 5.66655H4.39596V4.41655H3.33346L5.00013 2.74988L6.6668 4.41655H5.6043V5.66655Z" fill="#747376"/>
</svg>
