<svg xmlns="http://www.w3.org/2000/svg" width="10" height="10" viewBox="0 0 10 10" fill="none">
  <path d="M6.0001 10.0001H1.0001C0.732133 10.0094 0.472333 9.90705 0.28274 9.71745C0.0931476 9.52786 -0.00921597 9.26806 9.5836e-05 9.0001V4.0001C-0.00921597 3.73213 0.0931476 3.47233 0.28274 3.28274C0.472333 3.09315 0.732133 2.99078 1.0001 3.0001H3.0001V1.0001C2.99078 0.732133 3.09315 0.472333 3.28274 0.28274C3.47233 0.0931476 3.73213 -0.00921597 4.0001 9.5836e-05H9.0001C9.26806 -0.00921597 9.52786 0.0931476 9.71745 0.28274C9.90705 0.472333 10.0094 0.732133 10.0001 1.0001V6.0001C10.0093 6.26802 9.90685 6.52773 9.71729 6.71729C9.52773 6.90685 9.26802 7.00926 9.0001 7.0001H7.0001V9.0001C7.00926 9.26802 6.90685 9.52773 6.71729 9.71729C6.52773 9.90685 6.26802 10.0093 6.0001 10.0001ZM1.0001 4.0001V9.0001H6.0001V7.0001H4.0001C3.73218 7.00926 3.47246 6.90685 3.28291 6.71729C3.09335 6.52773 2.99093 6.26802 3.0001 6.0001V4.0001H1.0001ZM4.0001 1.0001V6.0001H9.0001V1.0001H4.0001Z" fill="#747376"/>
</svg>