<svg width="442" height="392" viewBox="0 0 442 392" fill="none" xmlns="http://www.w3.org/2000/svg">
<path d="M84.5375 214.317H150.459C119.407 236.287 104.079 252.932 82.8406 252.932C60.6124 251.111 67.0037 232.335 72.5184 221.715C73.6313 219.498 75.3451 217.631 77.4679 216.325C79.5906 215.018 82.0385 214.323 84.5375 214.317Z" fill="#D9304F"/>
<path d="M90.7315 391.728H19.6915C19.5282 391.727 19.3676 391.688 19.2224 391.614C19.0772 391.54 18.9514 391.433 18.8553 391.302C18.7591 391.172 18.6951 391.02 18.6684 390.861C18.6417 390.701 18.6531 390.538 18.7017 390.383L25.6869 369.254C25.8784 368.673 26.1938 368.14 26.6118 367.69C27.0298 367.241 27.5405 366.886 28.1092 366.649C28.678 366.412 29.2914 366.3 29.908 366.319C30.5245 366.338 31.1297 366.489 31.6823 366.76C50.793 376.057 70.6593 383.743 91.0708 389.739C91.3371 389.783 91.5746 389.931 91.731 390.149C91.8875 390.367 91.9501 390.638 91.9051 390.902C91.8601 391.165 91.7112 391.401 91.4911 391.556C91.271 391.711 90.9977 391.773 90.7315 391.728Z" fill="#D9304F"/>
<path d="M357.668 214.317H291.775C322.883 236.287 338.126 252.792 359.365 252.792C381.593 250.97 375.202 232.195 369.687 221.575C368.557 219.382 366.835 217.542 364.714 216.261C362.592 214.98 360.153 214.307 357.668 214.317Z" fill="#D9304F"/>
<path d="M351.503 391.728H422.543C422.709 391.733 422.873 391.698 423.021 391.626C423.17 391.554 423.299 391.447 423.396 391.314C423.493 391.182 423.557 391.028 423.581 390.866C423.605 390.703 423.588 390.538 423.533 390.383L416.548 369.254C416.353 368.672 416.035 368.138 415.614 367.689C415.193 367.239 414.68 366.884 414.109 366.648C413.538 366.411 412.923 366.299 412.304 366.319C411.686 366.338 411.079 366.488 410.524 366.76C391.412 376.054 371.546 383.741 351.136 389.739C350.869 389.787 350.633 389.938 350.48 390.159C350.326 390.38 350.267 390.652 350.316 390.916C350.364 391.18 350.517 391.413 350.74 391.566C350.962 391.718 351.237 391.777 351.503 391.728Z" fill="#D9304F"/>
<path d="M441.321 217.259C344.377 351.488 308.404 226.563 249.977 226.563C227.099 226.563 221.075 244.861 221.075 252.904C221.075 244.861 215.079 226.563 192.201 226.563C133.745 226.563 97.8012 351.488 0.828188 217.259C-1.03831 364.462 140.222 399.406 221.047 307.184C301.928 399.266 443.188 364.462 441.321 217.259Z" fill="#D9304F"/>
<path d="M429.924 162.082C419.065 167.855 407.046 173.572 396.78 177.943C393.41 179.371 389.783 180.105 386.118 180.101H56.0595C52.395 180.103 48.7681 179.369 45.3978 177.943C35.1321 173.572 23.113 167.855 12.1402 162.082C11.159 161.559 10.393 160.713 9.9747 159.69C9.55642 158.666 9.51215 157.53 9.84953 156.478C11.1504 152.19 13.5825 144.624 17.0893 136.161C17.3412 135.557 17.7167 135.011 18.1921 134.558C18.6675 134.104 19.2325 133.754 19.8515 133.527C20.4705 133.301 21.1301 133.204 21.7887 133.242C22.4474 133.281 23.0908 133.454 23.6786 133.752C34.2271 139.048 42.6546 142.831 50.5165 146.11V82.4981C50.5388 81.3683 50.9704 80.2841 51.7326 79.4436C72.5164 54.9471 98.4255 35.2199 127.666 21.6282C156.906 8.03651 188.778 0.905109 221.075 0.727905C253.376 0.906682 285.251 8.03864 314.496 21.6301C343.74 35.2216 369.655 54.9479 390.445 79.4436C391.168 80.3011 391.568 81.3808 391.576 82.4981V146.194C399.438 142.915 407.866 139.132 418.443 133.836C419.028 133.539 419.67 133.366 420.326 133.327C420.983 133.289 421.641 133.386 422.257 133.613C422.874 133.839 423.437 134.19 423.909 134.644C424.382 135.097 424.755 135.642 425.004 136.246C428.51 144.652 430.943 152.275 432.243 156.562C432.562 157.606 432.505 158.727 432.082 159.734C431.659 160.741 430.896 161.571 429.924 162.082Z" fill="#D9304F"/>
</svg>
