<svg width="30" height="27" viewBox="0 0 30 27" fill="none" xmlns="http://www.w3.org/2000/svg">
<path d="M5.70186 14.6324H10.1911C8.07647 16.1375 7.03265 17.2779 5.58631 17.2779C4.07257 17.1531 4.50782 15.8669 4.88337 15.1393C4.95916 14.9874 5.07587 14.8595 5.22043 14.77C5.36499 14.6805 5.53169 14.6329 5.70186 14.6324Z" fill="#D9304F"/>
<path d="M6.12377 26.7865H1.28596C1.27484 26.7864 1.2639 26.7837 1.25401 26.7786C1.24413 26.7735 1.23556 26.7662 1.22901 26.7573C1.22246 26.7483 1.2181 26.738 1.21629 26.727C1.21447 26.7161 1.21525 26.7049 1.21855 26.6943L1.69425 25.2468C1.70729 25.207 1.72877 25.1705 1.75723 25.1397C1.7857 25.1089 1.82047 25.0846 1.85921 25.0683C1.89794 25.0521 1.93972 25.0444 1.9817 25.0457C2.02369 25.0471 2.0649 25.0574 2.10253 25.076C3.40397 25.7128 4.75686 26.2394 6.14688 26.6502C6.16501 26.6532 6.18119 26.6633 6.19184 26.6783C6.20249 26.6932 6.20676 26.7118 6.20369 26.7298C6.20063 26.7479 6.19049 26.764 6.1755 26.7746C6.16051 26.7853 6.1419 26.7895 6.12377 26.7865Z" fill="#D9304F"/>
<path d="M24.302 14.6325H19.8147C21.9332 16.1376 22.9712 17.2683 24.4176 17.2683C25.9313 17.1435 25.496 15.8573 25.1205 15.1297C25.0436 14.9794 24.9263 14.8534 24.7818 14.7656C24.6373 14.6779 24.4712 14.6318 24.302 14.6325Z" fill="#D9304F"/>
<path d="M23.8821 26.7865H28.7199C28.7311 26.7868 28.7423 26.7844 28.7524 26.7795C28.7626 26.7745 28.7713 26.7672 28.778 26.7581C28.7846 26.7491 28.7889 26.7385 28.7905 26.7274C28.7922 26.7163 28.791 26.7049 28.7873 26.6944L28.3116 25.2468C28.2983 25.207 28.2766 25.1704 28.248 25.1396C28.2193 25.1088 28.1844 25.0845 28.1455 25.0683C28.1066 25.0521 28.0647 25.0444 28.0226 25.0457C27.9805 25.0471 27.9392 25.0574 27.9014 25.076C26.5999 25.7127 25.247 26.2393 23.857 26.6502C23.8389 26.6535 23.8228 26.6639 23.8124 26.679C23.8019 26.6941 23.7979 26.7128 23.8012 26.7308C23.8045 26.7489 23.8149 26.7649 23.8301 26.7754C23.8452 26.7858 23.8639 26.7898 23.8821 26.7865Z" fill="#D9304F"/>
<path d="M29.9988 14.834C23.3968 24.0297 20.9471 15.4714 16.9683 15.4714C15.4102 15.4714 15 16.725 15 17.276C15 16.725 14.5917 15.4714 13.0337 15.4714C9.05288 15.4714 6.60509 24.0297 0.00124707 14.834C-0.125861 24.9186 9.49391 27.3125 14.9981 20.9946C20.5061 27.3029 30.1259 24.9186 29.9988 14.834Z" fill="#D9304F"/>
<path d="M29.2226 11.054C28.4831 11.4495 27.6646 11.8411 26.9655 12.1406C26.736 12.2384 26.489 12.2887 26.2395 12.2884H3.76251C3.51296 12.2886 3.26597 12.2383 3.03645 12.1406C2.33736 11.8411 1.51886 11.4495 0.771616 11.054C0.704791 11.0182 0.652628 10.9602 0.624144 10.8901C0.595659 10.82 0.592644 10.7421 0.61562 10.6701C0.70421 10.3763 0.869836 9.858 1.10865 9.27823C1.1258 9.23683 1.15138 9.19943 1.18375 9.16837C1.21612 9.13731 1.2546 9.11327 1.29675 9.09776C1.3389 9.08225 1.38382 9.07561 1.42868 9.07825C1.47353 9.0809 1.51735 9.09277 1.55738 9.11313C2.27573 9.47596 2.84964 9.73513 3.38504 9.95975V5.60188C3.38655 5.52448 3.41595 5.45021 3.46785 5.39262C4.88322 3.71443 6.64763 2.36297 8.63887 1.43183C10.6301 0.500695 12.8006 0.0121398 15 0C17.1997 0.0122476 19.3704 0.50084 21.362 1.43196C23.3535 2.36308 25.1183 3.71448 26.5341 5.39262C26.5833 5.45136 26.6106 5.52533 26.6111 5.60188V9.9655C27.1465 9.74089 27.7205 9.48172 28.4407 9.11889C28.4806 9.09856 28.5243 9.0867 28.569 9.08407C28.6137 9.08145 28.6585 9.08811 28.7005 9.10363C28.7425 9.11915 28.7808 9.14319 28.813 9.17424C28.8452 9.20528 28.8706 9.24266 28.8875 9.28399C29.1263 9.85992 29.292 10.3821 29.3806 10.6758C29.4023 10.7473 29.3984 10.8241 29.3696 10.8931C29.3408 10.9621 29.2888 11.019 29.2226 11.054Z" fill="#D9304F"/>
</svg>
