<svg width="8" height="10" viewBox="0 0 8 10" fill="none" xmlns="http://www.w3.org/2000/svg">
<path d="M6.08333 9.16659H1.91667C1.45643 9.16659 1.08333 8.79349 1.08333 8.33325V2.91659H0.25V2.08325H1.91667V1.66659C1.91667 1.20635 2.28976 0.833252 2.75 0.833252H5.25C5.71024 0.833252 6.08333 1.20635 6.08333 1.66659V2.08325H7.75V2.91659H6.91667V8.33325C6.91667 8.79349 6.54357 9.16659 6.08333 9.16659ZM1.91667 2.91659V8.33325H6.08333V2.91659H1.91667ZM2.75 1.66659V2.08325H5.25V1.66659H2.75ZM5.25 7.49992H4.41667V3.74992H5.25V7.49992ZM3.58333 7.49992H2.75V3.74992H3.58333V7.49992Z" fill="#F26680"/>
</svg>
