<svg width="24" height="15" viewBox="0 0 24 15" fill="none" xmlns="http://www.w3.org/2000/svg">
<path d="M19.2127 1.04449L18.7683 0.621834C18.4071 0.278404 17.8216 0.278404 17.4605 0.621834L5.05247 12.4214C4.69133 12.7649 4.69133 13.3217 5.05247 13.6651L5.49692 14.0878C5.85806 14.4312 6.44358 14.4312 6.80471 14.0878L19.2127 2.28816C19.5739 1.94473 19.5739 1.38792 19.2127 1.04449Z" fill="#777777"/>
<path d="M6.00805 5.75019C6.10576 5.84136 6.26443 5.84136 6.36245 5.75019L7.05655 5.10381C8.65396 3.61648 10.8321 2.99982 12.9114 3.25266L15.3683 0.916221C11.8365 -0.253893 7.74085 0.476663 4.91361 3.10876L4.39655 3.59027C4.20082 3.77261 4.20082 4.06798 4.39655 4.25004L6.00775 5.75019H6.00805Z" fill="#777777"/>
<path d="M3.96465 11.761L5.64384 10.1641L1.84896 6.63078C1.65323 6.44843 1.33589 6.44843 1.14016 6.63078L0.146799 7.54689C-0.048933 7.72924 -0.048933 8.0246 0.146799 8.20666L3.96434 11.761H3.96465Z" fill="#777777"/>
<path d="M22.8676 6.63798C22.6719 6.45563 22.3549 6.45563 22.1591 6.63798L17.0784 11.3781C17.0294 11.4236 16.95 11.4236 16.9013 11.3781L14.5501 9.18007L12.9211 10.7292L16.6786 14.2276C16.8744 14.4099 17.1917 14.4099 17.3874 14.2276L23.854 8.20658C24.0497 8.02423 24.0497 7.72886 23.854 7.54681L22.8683 6.63798H22.8676Z" fill="#777777"/>
</svg>
