<svg width="20" height="20" viewBox="0 0 20 20" fill="none" xmlns="http://www.w3.org/2000/svg">
<g opacity="0.8">
<rect width="20" height="20" rx="5" fill="#EAF0F0"/>
<path d="M12.0833 14.1666H7.91667C7.45643 14.1666 7.08333 13.7935 7.08333 13.3333V7.91659H6.25V7.08325H7.91667V6.66659C7.91667 6.20635 8.28976 5.83325 8.75 5.83325H11.25C11.7102 5.83325 12.0833 6.20635 12.0833 6.66659V7.08325H13.75V7.91659H12.9167V13.3333C12.9167 13.7935 12.5436 14.1666 12.0833 14.1666ZM7.91667 7.91659V13.3333H12.0833V7.91659H7.91667ZM8.75 6.66659V7.08325H11.25V6.66659H8.75ZM11.25 12.4999H10.4167V8.74992H11.25V12.4999ZM9.58333 12.4999H8.75V8.74992H9.58333V12.4999Z" fill="#F26680"/>
</g>
</svg>
