<svg width="10" height="10" viewBox="0 0 10 10" fill="none" xmlns="http://www.w3.org/2000/svg">
<path d="M5.24117 4.58634C5.24117 4.39786 5.11169 3.96877 4.61725 3.96877C4.12282 3.96877 3.39282 4.80769 2.67852 5.09615L0.951788 1.02291H0.475894C0.349679 1.02291 0.228633 0.969028 0.139386 0.873111C0.0501387 0.777194 0 0.647103 0 0.511456C0 0.37581 0.0501387 0.245719 0.139386 0.149802C0.228633 0.0538854 0.349679 0 0.475894 0H1.25648C1.34616 2.77069e-05 1.43398 0.0274554 1.50971 0.0790844C1.58543 0.130713 1.64594 0.204416 1.68417 0.291597L2.0037 1.02291H9.04739C9.12992 1.023 9.211 1.04624 9.28261 1.09032C9.35423 1.1344 9.41389 1.19781 9.45572 1.27428C9.49754 1.35074 9.52007 1.43761 9.52108 1.5263C9.52209 1.61499 9.50155 1.70243 9.46148 1.77997L7.75444 5.10543C7.07954 4.80902 6.54246 3.96877 5.86508 3.96877C5.37111 3.96877 5.24117 4.39786 5.24117 4.58634Z" fill="#747376"/>
<path d="M9.99961 4.44153C7.90506 7.58682 7.12911 4.65923 5.8649 4.65923C5.37046 4.65923 5.24098 5.08832 5.24098 5.2768C5.24098 5.08832 5.11119 4.65923 4.61707 4.65923C3.35271 4.65923 2.57706 7.58682 0.482509 4.44153C0.442336 7.89104 3.49455 8.70638 5.24145 6.54913C6.98758 8.70638 10.0399 7.89104 9.99961 4.44153Z" fill="#747376"/>
<path d="M2.24868 8.19244C2.14213 8.2886 2.05648 8.40869 1.99775 8.54424C1.93903 8.6798 1.90865 8.82754 1.90875 8.97706C1.90875 9.53967 2.33227 9.99998 2.85575 9.99998C3.04426 10.0003 3.22859 9.94032 3.38532 9.82774C3.54204 9.71517 3.66408 9.55505 3.73593 9.36775C3.80777 9.18044 3.82618 8.97441 3.7888 8.77584C3.75142 8.57727 3.65996 8.39512 3.52602 8.25256C3.09014 8.35169 2.65133 8.33077 2.24868 8.19244Z" fill="#747376"/>
<path d="M6.94856 8.25074C6.85948 8.34591 6.78879 8.45908 6.74058 8.58374C6.69237 8.7084 6.66759 8.84208 6.66766 8.97708C6.66766 9.53968 7.09118 9.99999 7.61481 9.99999C7.81007 10.0002 8.00065 9.93579 8.16065 9.81552C8.32066 9.69525 8.44232 9.52494 8.50911 9.32775C8.57591 9.13056 8.58458 8.91605 8.53397 8.71338C8.48335 8.5107 8.3759 8.32969 8.22621 8.19495C7.82325 8.33178 7.38552 8.35137 6.94856 8.25074Z" fill="#747376"/>
</svg>
