<svg width="20" height="20" viewBox="0 0 20 20" fill="none" xmlns="http://www.w3.org/2000/svg">
<rect width="20" height="20" rx="5" fill="#EAF0F0"/>
<path d="M10.7143 5.71429C10.7143 5.31987 11.0335 5 11.4286 5H14.2656C14.3817 5 14.4754 5.0192 14.558 5.05424C14.6228 5.08884 14.721 5.13996 14.7902 5.20759C14.7902 5.20871 14.7902 5.20982 14.7924 5.21071C14.9308 5.34955 14.9799 5.5308 15 5.71205C15 5.71295 15 5.71362 15 5.71429V8.57143C15 8.96652 14.6808 9.28571 14.2857 9.28571C13.8906 9.28571 13.5714 8.96652 13.5714 8.57143V7.43973L9.79018 11.2188C9.51116 11.4978 9.06027 11.4978 8.78125 11.2188C8.50223 10.9397 8.50223 10.4888 8.78125 10.2098L12.5603 6.42857H11.4286C11.0335 6.42857 10.7143 6.10871 10.7143 5.71429ZM5 7.14286C5 6.35379 5.63951 5.71429 6.42857 5.71429H8.57143C8.96652 5.71429 9.28571 6.03415 9.28571 6.42857C9.28571 6.82366 8.96652 7.14286 8.57143 7.14286H6.42857V13.5714H12.8571V11.4286C12.8571 11.0335 13.1763 10.7143 13.5714 10.7143C13.9665 10.7143 14.2857 11.0335 14.2857 11.4286V13.5714C14.2857 14.3594 13.6451 15 12.8571 15H6.42857C5.63951 15 5 14.3594 5 13.5714V7.14286Z" fill="#747376"/>
</svg>
