<svg width="20" height="21" viewBox="0 0 20 21" fill="none" xmlns="http://www.w3.org/2000/svg">
<rect y="0.0263672" width="20" height="20" rx="5" fill="#EAF0F0"/>
<g clip-path="url(#clip0_609_5062)">
<path d="M10.7583 14.193H9.24167C9.04589 14.193 8.87649 14.0567 8.83459 13.8655L8.66501 13.0805C8.43878 12.9813 8.22427 12.8574 8.02542 12.7109L7.26001 12.9546C7.07334 13.0141 6.87042 12.9356 6.77251 12.7659L6.01251 11.453C5.91567 11.2832 5.94903 11.069 6.09292 10.9367L6.68667 10.395C6.65967 10.1497 6.65967 9.90207 6.68667 9.6567L6.09292 9.11629C5.94882 8.98394 5.91544 8.7695 6.01251 8.59962L6.77084 7.28587C6.86875 7.11616 7.07167 7.03759 7.25834 7.09712L8.02376 7.34087C8.12545 7.26552 8.23131 7.19596 8.34084 7.13254C8.44598 7.07324 8.55419 7.01956 8.66501 6.9717L8.83501 6.18754C8.8767 5.99627 9.04592 5.85983 9.24167 5.85962H10.7583C10.9541 5.85983 11.1233 5.99627 11.165 6.18754L11.3367 6.97212C11.4537 7.02358 11.5676 7.08174 11.6779 7.14629C11.7808 7.20579 11.8803 7.27103 11.9758 7.3417L12.7417 7.09795C12.9282 7.03865 13.1309 7.11719 13.2288 7.2867L13.9871 8.60045C14.0839 8.77024 14.0506 8.98442 13.9067 9.1167L13.3129 9.65837C13.3399 9.90374 13.3399 10.1513 13.3129 10.3967L13.9067 10.9384C14.0506 11.0707 14.0839 11.2848 13.9871 11.4546L13.2288 12.7684C13.1309 12.9379 12.9282 13.0164 12.7417 12.9571L11.9758 12.7134C11.8789 12.7847 11.7782 12.8508 11.6742 12.9113C11.5649 12.9746 11.4523 13.0318 11.3367 13.0825L11.165 13.8655C11.1231 14.0566 10.954 14.1928 10.7583 14.193ZM8.17501 11.7884L8.51667 12.0384C8.59369 12.0951 8.67397 12.1473 8.75709 12.1946C8.8353 12.2399 8.91583 12.2811 8.99834 12.318L9.38709 12.4884L9.57751 13.3596H10.4233L10.6138 12.488L11.0025 12.3175C11.1722 12.2427 11.3333 12.1497 11.4829 12.04L11.825 11.79L12.6754 12.0609L13.0983 11.3284L12.4388 10.7271L12.4854 10.3055C12.5059 10.121 12.5059 9.93489 12.4854 9.75045L12.4388 9.32879L13.0988 8.72629L12.6754 7.99337L11.825 8.2642L11.4829 8.0142C11.3333 7.90408 11.1722 7.81035 11.0025 7.73462L10.6138 7.5642L10.4233 6.69295H9.57751L9.38626 7.56462L8.99834 7.73462C8.91576 7.77089 8.83522 7.81164 8.75709 7.8567C8.67448 7.90392 8.59463 7.95581 8.51792 8.01212L8.17584 8.26212L7.32584 7.99129L6.90209 8.72629L7.56167 9.3267L7.51501 9.74879C7.49451 9.93322 7.49451 10.1194 7.51501 10.3038L7.56167 10.7255L6.90209 11.3267L7.32501 12.0592L8.17501 11.7884ZM9.99834 11.693C9.07787 11.693 8.33167 10.9468 8.33167 10.0263C8.33167 9.10581 9.07787 8.35962 9.99834 8.35962C10.9188 8.35962 11.665 9.10581 11.665 10.0263C11.6639 10.9463 10.9183 11.6918 9.99834 11.693ZM9.99834 9.19295C9.54309 9.19341 9.17246 9.55914 9.16594 10.0143C9.15941 10.4695 9.51941 10.8457 9.97446 10.8593C10.4295 10.8728 10.8112 10.5186 10.8317 10.0638V10.2305V10.0263C10.8317 9.56605 10.4586 9.19295 9.99834 9.19295Z" fill="#747376"/>
</g>
<defs>
<clipPath id="clip0_609_5062">
<rect width="10" height="10" fill="white" transform="translate(5 5.02637)"/>
</clipPath>
</defs>
</svg>
