<svg width="10" height="10" viewBox="0 0 10 10" fill="none" xmlns="http://www.w3.org/2000/svg">
<path d="M5.75834 9.16665H4.24167C4.04589 9.16665 3.87649 9.0304 3.83459 8.83915L3.66501 8.05415C3.43878 7.95503 3.22427 7.83107 3.02542 7.68456L2.26001 7.92831C2.07334 7.98784 1.87042 7.90927 1.77251 7.73956L1.01251 6.42665C0.915668 6.25686 0.949031 6.04268 1.09292 5.9104L1.68667 5.36873C1.65967 5.12336 1.65967 4.87577 1.68667 4.6304L1.09292 4.08998C0.948819 3.95763 0.915443 3.7432 1.01251 3.57331L1.77084 2.25956C1.86875 2.08985 2.07167 2.01129 2.25834 2.07081L3.02376 2.31456C3.12545 2.23921 3.23131 2.16966 3.34084 2.10623C3.44598 2.04694 3.55419 1.99325 3.66501 1.9454L3.83501 1.16123C3.8767 0.969967 4.04592 0.833519 4.24167 0.833313H5.75834C5.95409 0.833519 6.12331 0.969967 6.16501 1.16123L6.33667 1.94581C6.45367 1.99728 6.56761 2.05543 6.67792 2.11998C6.78095 2.17947 6.88056 2.24471 6.97626 2.3154L7.74209 2.07165C7.92863 2.01234 8.1313 2.09088 8.22917 2.2604L8.98751 3.57415C9.08434 3.74393 9.05098 3.95811 8.90709 4.0904L8.31334 4.63206C8.34034 4.87743 8.34034 5.12503 8.31334 5.3704L8.90709 5.91206C9.05098 6.04435 9.08434 6.25853 8.98751 6.42831L8.22917 7.74206C8.1313 7.91158 7.92863 7.99012 7.74209 7.93081L6.97626 7.68706C6.87935 7.75844 6.77865 7.82451 6.67459 7.88498C6.56535 7.94827 6.45268 8.00545 6.33709 8.05623L6.16501 8.83915C6.12314 9.03024 5.95397 9.16648 5.75834 9.16665ZM4.99834 3.33331C4.07787 3.33331 3.33167 4.07951 3.33167 4.99998C3.33167 5.92045 4.07787 6.66665 4.99834 6.66665C5.91881 6.66665 6.66501 5.92045 6.66501 4.99998C6.66501 4.07951 5.91881 3.33331 4.99834 3.33331Z" fill="#747376"/>
</svg>
