<svg width="11" height="10" viewBox="0 0 11 10" fill="none" xmlns="http://www.w3.org/2000/svg">
<path d="M1.01226 5.87332L1.04933 5.81047L3.28345 2.03819C3.31608 1.98295 3.39286 1.98867 3.41756 2.04866C3.7908 2.95151 4.11286 4.07433 3.96197 4.77336C3.89756 5.06096 3.7211 5.45048 3.52256 5.81047C3.49697 5.86285 3.46874 5.91429 3.43874 5.96381C3.42462 5.98665 3.4008 6 3.37521 6H1.07755C1.01579 6 0.979628 5.92762 1.01226 5.87332Z" fill="#747376"/>
<path d="M11 6.39167V6.97222C11 7.00555 10.9798 7.03519 10.9505 7.04815C10.7708 7.12593 10.1557 7.41112 9.9 7.77037C9.24734 8.68795 8.74867 10 7.634 10H2.98376C1.33558 10 0 8.6463 0 6.97593V6.92221C0 6.87777 0.035748 6.84166 0.0797639 6.84166H2.67208C2.72341 6.84166 2.761 6.88981 2.75642 6.94074C2.73808 7.11111 2.76925 7.28519 2.849 7.44352C3.00301 7.75925 3.32201 7.95648 3.66668 7.95648H4.95V6.94444H3.68133C3.61626 6.94444 3.57776 6.86852 3.61535 6.81481C3.62909 6.79352 3.64467 6.77129 3.66117 6.74629C3.78126 6.57408 3.95266 6.30648 4.12318 6.00184C4.23958 5.7963 4.35234 5.57684 4.44308 5.35648C4.46142 5.31667 4.4761 5.27594 4.49075 5.2361C4.51551 5.16575 4.54117 5.1 4.55951 5.03427C4.57783 4.97871 4.5925 4.92037 4.60717 4.86574C4.65026 4.6787 4.6686 4.48055 4.6686 4.27499C4.6686 4.19444 4.66493 4.11019 4.65759 4.02962C4.65392 3.94166 4.64292 3.8537 4.63192 3.76574C4.62458 3.68796 4.61084 3.61111 4.59617 3.53056C4.57783 3.41296 4.55217 3.2963 4.52283 3.1787L4.51276 3.13426C4.49075 3.05371 4.47243 2.97685 4.44675 2.8963C4.37434 2.64352 4.29091 2.39722 4.20292 2.16667C4.17084 2.075 4.13416 1.98704 4.0975 1.89908C4.04341 1.76666 3.98841 1.6463 3.93801 1.5324C3.91234 1.48055 3.89033 1.43333 3.86834 1.38518C3.8436 1.33055 3.81792 1.27594 3.79226 1.22406C3.77392 1.18425 3.75283 1.14722 3.73818 1.11019L3.58142 0.817592C3.55942 0.777778 3.5961 0.730553 3.63916 0.74259L4.62 1.01112H4.62276C4.62458 1.01112 4.62551 1.01204 4.62642 1.01204L4.75568 1.04815L4.89776 1.08888L4.95 1.1037V0.51482C4.95 0.230554 5.17551 0 5.45418 0C5.5935 0 5.72 0.0573979 5.81075 0.150925C5.9015 0.244452 5.95834 0.372226 5.95834 0.51482V1.38889L6.06283 1.41851C6.0711 1.42129 6.07934 1.425 6.08668 1.43055C6.11234 1.44999 6.149 1.47871 6.19575 1.51388C6.23243 1.54352 6.27184 1.57963 6.31951 1.61666C6.41392 1.69352 6.52666 1.7926 6.65042 1.90647C6.68341 1.93519 6.71551 1.96481 6.74484 1.99445C6.90435 2.14444 7.08309 2.32038 7.2536 2.51482C7.30126 2.56943 7.34801 2.62499 7.39568 2.68333C7.44334 2.74259 7.49376 2.80093 7.53776 2.85927C7.59551 2.93703 7.65783 3.01758 7.71192 3.10186C7.73759 3.14167 7.76692 3.18241 7.79168 3.22222C7.86133 3.32871 7.92276 3.4389 7.98142 3.54907C8.00617 3.6 8.03184 3.65555 8.05383 3.71019C8.11892 3.85741 8.17026 4.00741 8.20325 4.15741C8.21334 4.18982 8.22068 4.22501 8.22434 4.25649V4.26388C8.23533 4.30834 8.239 4.35556 8.24266 4.40371C8.25734 4.5574 8.25 4.71111 8.21701 4.86574C8.20325 4.93149 8.18493 4.99351 8.16292 5.05926C8.14091 5.12223 8.11893 5.18796 8.09051 5.25C8.03551 5.37869 7.97042 5.50741 7.89341 5.62777C7.86867 5.67221 7.83934 5.71944 7.81 5.76388C7.77792 5.8111 7.74493 5.85556 7.71559 5.89908C7.67526 5.95464 7.63217 6.01296 7.58818 6.06481C7.54876 6.11944 7.50841 6.17408 7.46442 6.22222C7.40301 6.29536 7.34434 6.36482 7.28292 6.43149C7.24626 6.47501 7.20685 6.51945 7.1665 6.55926C7.12708 6.6037 7.08675 6.64352 7.05009 6.68055C6.98867 6.74259 6.93734 6.79074 6.89425 6.83055L6.79341 6.92408C6.77876 6.93703 6.75951 6.94444 6.73934 6.94444H5.95834V7.95648H6.94101C7.16101 7.95648 7.37 7.87777 7.53867 7.73334C7.59642 7.68241 7.84851 7.46203 8.14643 7.12964C8.1565 7.11852 8.16934 7.11019 8.184 7.10648L10.8982 6.31389C10.9487 6.29907 11 6.33796 11 6.39167Z" fill="#747376"/>
</svg>
