<svg width="8" height="8" viewBox="0 0 8 8" fill="none" xmlns="http://www.w3.org/2000/svg">
<path d="M6.78199 7.1696L4.40074 4.78794C3.34144 5.54104 1.88176 5.35683 1.04277 4.36416C0.203789 3.37148 0.265393 1.90151 1.18449 0.982519C2.10335 0.0631211 3.57346 0.00125018 4.56632 0.840191C5.55918 1.67913 5.7435 3.13895 4.99033 4.19835L7.37158 6.58002L6.78241 7.16919L6.78199 7.1696ZM2.95199 1.08335C2.16187 1.08317 1.4802 1.6378 1.31969 2.41145C1.15918 3.1851 1.56396 3.96513 2.28894 4.27928C3.01393 4.59344 3.85987 4.35536 4.3146 3.70921C4.76932 3.06305 4.70786 2.1864 4.16741 1.61002L4.41949 1.86002L4.13533 1.57669L4.13033 1.57169C3.81857 1.25801 3.39424 1.08215 2.95199 1.08335Z" fill="#747376"/>
</svg>
