<svg width="10" height="10" viewBox="0 0 10 10" fill="none" xmlns="http://www.w3.org/2000/svg">
<path d="M5.7581 9.16659H4.24143C4.04564 9.16659 3.87624 9.03034 3.83435 8.83909L3.66476 8.05409C3.43853 7.95497 3.22402 7.83101 3.02518 7.6845L2.25976 7.92825C2.0731 7.98778 1.87017 7.90921 1.77226 7.7395L1.01226 6.42659C0.915424 6.2568 0.948787 6.04262 1.09268 5.91034L1.68643 5.36867C1.65943 5.1233 1.65943 4.87571 1.68643 4.63034L1.09268 4.08992C0.948575 3.95757 0.915199 3.74314 1.01226 3.57325L1.7706 2.2595C1.86851 2.08979 2.07143 2.01123 2.2581 2.07075L3.02351 2.3145C3.12521 2.23915 3.23107 2.1696 3.3406 2.10617C3.44574 2.04687 3.55394 1.99319 3.66476 1.94534L3.83476 1.16117C3.87646 0.969906 4.04567 0.833458 4.24143 0.833252H5.7581C5.95385 0.833458 6.12307 0.969906 6.16476 1.16117L6.33643 1.94575C6.45342 1.99722 6.56736 2.05537 6.67768 2.11992C6.78057 2.17942 6.88003 2.24467 6.97559 2.31534L7.74143 2.07159C7.92797 2.01228 8.13064 2.09082 8.22851 2.26034L8.98685 3.57409C9.08368 3.74387 9.05032 3.95805 8.90643 4.09034L8.31268 4.632C8.33968 4.87737 8.33968 5.12497 8.31268 5.37034L8.90643 5.912C9.05032 6.04429 9.08368 6.25847 8.98685 6.42825L8.22851 7.742C8.13064 7.91152 7.92797 7.99006 7.74143 7.93075L6.97559 7.687C6.87869 7.75838 6.77799 7.82445 6.67393 7.88492C6.56469 7.94821 6.45202 8.00538 6.33643 8.05617L6.16476 8.83909C6.1229 9.03018 5.95372 9.16642 5.7581 9.16659ZM3.17476 6.762L3.51643 7.012C3.59345 7.06873 3.67373 7.12091 3.75685 7.16825C3.83505 7.21355 3.91558 7.25471 3.9981 7.29159L4.38685 7.462L4.57726 8.33325H5.4231L5.61351 7.46159L6.00226 7.29117C6.17197 7.21633 6.33305 7.12328 6.48268 7.01367L6.82476 6.76367L7.67518 7.0345L8.0981 6.302L7.43851 5.70075L7.48518 5.27909C7.50568 5.09465 7.50568 4.90852 7.48518 4.72409L7.43851 4.30242L8.09851 3.69992L7.67518 2.967L6.82476 3.23784L6.48268 2.98784C6.33301 2.87771 6.17195 2.78398 6.00226 2.70825L5.61351 2.53784L5.4231 1.66659H4.57726L4.38601 2.53825L3.9981 2.70825C3.91551 2.74452 3.83498 2.78528 3.75685 2.83034C3.67424 2.87756 3.59438 2.92945 3.51768 2.98575L3.1756 3.23575L2.3256 2.96492L1.90185 3.69992L2.56143 4.30034L2.51476 4.72242C2.49426 4.90685 2.49426 5.09299 2.51476 5.27742L2.56143 5.69909L1.90185 6.30034L2.32476 7.03284L3.17476 6.762ZM4.9981 6.66659C4.07762 6.66659 3.33143 5.92039 3.33143 4.99992C3.33143 4.07944 4.07762 3.33325 4.9981 3.33325C5.91857 3.33325 6.66476 4.07944 6.66476 4.99992C6.66361 5.91992 5.91809 6.66544 4.9981 6.66659ZM4.9981 4.16659C4.54284 4.16705 4.17222 4.53277 4.16569 4.98798C4.15917 5.44318 4.51916 5.81938 4.97422 5.83288C5.42927 5.84639 5.81094 5.49221 5.83143 5.03742V5.20409V4.99992C5.83143 4.53968 5.45833 4.16659 4.9981 4.16659Z" fill="#747376"/>
</svg>
