<svg width="20" height="20" viewBox="0 0 20 20" fill="none" xmlns="http://www.w3.org/2000/svg">
<path d="M11.8199 20H8.17992C7.71003 20 7.30347 19.673 7.20292 19.214L6.79592 17.33C6.25297 17.0921 5.73814 16.7946 5.26092 16.443L3.42392 17.028C2.97592 17.1709 2.4889 16.9823 2.25392 16.575L0.429918 13.424C0.197506 13.0165 0.277577 12.5025 0.622918 12.185L2.04792 10.885C1.98312 10.2961 1.98312 9.70189 2.04792 9.113L0.622918 7.816C0.277068 7.49837 0.196966 6.98372 0.429918 6.576L2.24992 3.423C2.48491 3.0157 2.97192 2.82714 3.41992 2.97L5.25692 3.555C5.50098 3.37416 5.75505 3.20722 6.01792 3.055C6.27026 2.91269 6.52995 2.78385 6.79592 2.669L7.20392 0.787C7.30399 0.327969 7.71011 0.000494393 8.17992 0H11.8199C12.2897 0.000494393 12.6958 0.327969 12.7959 0.787L13.2079 2.67C13.4887 2.79352 13.7622 2.93308 14.0269 3.088C14.2742 3.23078 14.5132 3.38736 14.7429 3.557L16.5809 2.972C17.0286 2.82967 17.515 3.01816 17.7499 3.425L19.5699 6.578C19.8023 6.98548 19.7223 7.49951 19.3769 7.817L17.9519 9.117C18.0167 9.70589 18.0167 10.3001 17.9519 10.889L19.3769 12.189C19.7223 12.5065 19.8023 13.0205 19.5699 13.428L17.7499 16.581C17.515 16.9878 17.0286 17.1763 16.5809 17.034L14.7429 16.449C14.5103 16.6203 14.2687 16.7789 14.0189 16.924C13.7567 17.0759 13.4863 17.2131 13.2089 17.335L12.7959 19.214C12.6954 19.6726 12.2894 19.9996 11.8199 20ZM9.99592 6C7.78678 6 5.99592 7.79086 5.99592 10C5.99592 12.2091 7.78678 14 9.99592 14C12.2051 14 13.9959 12.2091 13.9959 10C13.9959 7.79086 12.2051 6 9.99592 6Z" fill="#919191"/>
</svg>
