<svg width="18" height="17" viewBox="0 0 18 17" fill="none" xmlns="http://www.w3.org/2000/svg">
<g clip-path="url(#clip0_663_11875)">
<path d="M9.434 7.66574C9.434 7.35071 9.20094 6.63352 8.31097 6.63352C7.42099 6.63352 6.10701 8.03572 4.82129 8.51786L1.7132 1.70973H0.8566C0.629416 1.70973 0.411536 1.61966 0.250892 1.45934C0.0902487 1.29903 0 1.08159 0 0.854863C0 0.628139 0.0902487 0.410702 0.250892 0.250384C0.411536 0.0900657 0.629416 0 0.8566 0H2.26165C2.42306 4.63101e-05 2.58114 0.0458897 2.71744 0.132184C2.85375 0.218478 2.96266 0.341667 3.03147 0.487383L3.60662 1.70973H16.2851C16.4337 1.70987 16.5796 1.74871 16.7085 1.82239C16.8374 1.89608 16.9448 2.00206 17.0201 2.12986C17.0954 2.25767 17.1359 2.40286 17.1378 2.5511C17.1396 2.69934 17.1026 2.84549 17.0305 2.97509L13.9579 8.53337C12.743 8.03794 11.7763 6.63352 10.557 6.63352C9.6679 6.63352 9.434 7.35071 9.434 7.66574Z" fill="#E3E3E3"/>
<path d="M17.999 7.42383C14.2288 12.681 12.8321 7.7877 10.5566 7.7877C9.66661 7.7877 9.43355 8.5049 9.43355 8.81992C9.43355 8.5049 9.19993 7.7877 8.31051 7.7877C6.03468 7.7877 4.63853 12.681 0.868382 7.42383C0.796072 13.1894 6.28999 14.5522 9.43438 10.9465C12.5774 14.5522 18.0716 13.1894 17.999 7.42383Z" fill="#E3E3E3"/>
<path d="M4.0474 13.6931C3.85562 13.8538 3.70146 14.0545 3.59575 14.2811C3.49004 14.5077 3.43536 14.7546 3.43555 15.0046C3.43555 15.9449 4.19787 16.7143 5.14013 16.7143C5.47944 16.7148 5.81123 16.6146 6.09333 16.4264C6.37544 16.2382 6.59511 15.9706 6.72443 15.6575C6.85375 15.3445 6.88688 15.0001 6.8196 14.6682C6.75232 14.3363 6.58768 14.0319 6.3466 13.7936C5.56203 13.9593 4.77218 13.9243 4.0474 13.6931Z" fill="#E3E3E3"/>
<path d="M12.5071 13.7905C12.3467 13.9496 12.2195 14.1388 12.1327 14.3471C12.0459 14.5555 12.0013 14.7789 12.0015 15.0045C12.0015 15.9449 12.7638 16.7143 13.7063 16.7143C14.0578 16.7146 14.4008 16.607 14.6888 16.4059C14.9768 16.2049 15.1958 15.9203 15.316 15.5907C15.4363 15.2611 15.4519 14.9025 15.3608 14.5638C15.2697 14.225 15.0763 13.9225 14.8068 13.6973C14.0815 13.926 13.2936 13.9587 12.5071 13.7905Z" fill="#E3E3E3"/>
</g>
<defs>
<clipPath id="clip0_663_11875">
<rect width="18" height="16.7143" fill="white"/>
</clipPath>
</defs>
</svg>
