<svg width="10" height="10" viewBox="0 0 10 10" fill="none" xmlns="http://www.w3.org/2000/svg">
<g clip-path="url(#clip0_14_864)">
<path d="M8.45508 9.04458L4.82758 5.41666H2.91675V4.58333H3.99425L3.16091 3.75H2.91675C2.22639 3.75 1.66675 4.30964 1.66675 5C1.66675 5.69035 2.22639 6.25 2.91675 6.25H4.16675V7.08333H2.91675C1.8674 7.0842 0.981182 6.30447 0.848435 5.26355C0.715689 4.22262 1.37785 3.24544 2.39383 2.98291L0.955081 1.54458L1.54466 0.955414L9.04466 8.45541L8.4555 9.04416L8.45508 9.04458ZM8.39008 6.62208L7.79508 6.0275C8.24444 5.71618 8.43938 5.14897 8.27633 4.62718C8.11328 4.10539 7.63008 3.75008 7.08341 3.75H5.83341V2.91666H7.08341C7.96675 2.91677 8.75399 3.47393 9.04784 4.30696C9.34169 5.13998 9.07826 6.06777 8.3905 6.62208H8.39008Z" fill="#919191"/>
</g>
<defs>
<clipPath id="clip0_14_864">
<rect width="10" height="10" fill="white"/>
</clipPath>
</defs>
</svg>
