<svg width="12" height="12" viewBox="0 0 12 12" fill="none" xmlns="http://www.w3.org/2000/svg">
<path d="M9.4375 3.81818C9.4375 2.9502 9.08982 2.11777 8.47095 1.50401C7.85208 0.890258 7.01271 0.545454 6.1375 0.545454C5.26229 0.545454 4.42292 0.890258 3.80405 1.50401C3.18518 2.11777 2.8375 2.9502 2.8375 3.81818C2.8375 7.63636 1.1875 8.72727 1.1875 8.72727H11.0875C11.0875 8.72727 9.4375 7.63636 9.4375 3.81818Z" fill="#747376" stroke="#747376" stroke-linecap="round" stroke-linejoin="round"/>
<path d="M7.08903 10.9091C6.99234 11.0744 6.85355 11.2116 6.68656 11.307C6.51957 11.4024 6.33024 11.4526 6.13753 11.4526C5.94483 11.4526 5.7555 11.4024 5.58851 11.307C5.42152 11.2116 5.28273 11.0744 5.18604 10.9091" stroke="#747376" stroke-linecap="round" stroke-linejoin="round"/>
</svg>
