<svg xmlns="http://www.w3.org/2000/svg" width="15" height="16" viewBox="0 0 15 16" fill="none">
  <path d="M9.4375 7.81814C9.4375 6.95016 9.08982 6.11773 8.47095 5.50397C7.85208 4.89021 7.01271 4.54541 6.1375 4.54541C5.26229 4.54541 4.42292 4.89021 3.80405 5.50397C3.18518 6.11773 2.8375 6.95016 2.8375 7.81814C2.8375 11.6363 1.1875 12.7272 1.1875 12.7272H11.0875C11.0875 12.7272 9.4375 11.6363 9.4375 7.81814Z" fill="#747376" stroke="#747376" stroke-linecap="round" stroke-linejoin="round"/>
  <path d="M7.08855 14.9092C6.99185 15.0745 6.85306 15.2117 6.68607 15.3071C6.51908 15.4025 6.32976 15.4527 6.13705 15.4527C5.94434 15.4527 5.75501 15.4025 5.58802 15.3071C5.42103 15.2117 5.28224 15.0745 5.18555 14.9092" stroke="#747376" stroke-linecap="round" stroke-linejoin="round"/>
  <circle cx="11.375" cy="3.5" r="3" fill="#D9304F" stroke="#F6F8FA"/>
</svg>
