<svg width="12" height="12" viewBox="0 0 12 12" fill="none" xmlns="http://www.w3.org/2000/svg">
<path d="M9.4375 3.81814C9.4375 2.95016 9.08982 2.11773 8.47095 1.50397C7.85208 0.890214 7.01271 0.54541 6.1375 0.54541C5.26229 0.54541 4.42292 0.890214 3.80405 1.50397C3.18518 2.11773 2.8375 2.95016 2.8375 3.81814C2.8375 7.63632 1.1875 8.72723 1.1875 8.72723H11.0875C11.0875 8.72723 9.4375 7.63632 9.4375 3.81814Z" fill="#747376" stroke="#747376" stroke-linecap="round" stroke-linejoin="round"/>
<path d="M7.08855 10.9092C6.99185 11.0745 6.85306 11.2117 6.68607 11.3071C6.51908 11.4025 6.32976 11.4527 6.13705 11.4527C5.94434 11.4527 5.75501 11.4025 5.58802 11.3071C5.42103 11.2117 5.28224 11.0745 5.18555 10.9092" stroke="#747376" stroke-linecap="round" stroke-linejoin="round"/>
</svg>
