<svg width="12" height="16" viewBox="0 0 12 16" fill="none" xmlns="http://www.w3.org/2000/svg">
<path d="M2.25 4.625C2.25 2.55393 3.92893 0.875 6 0.875C8.07107 0.875 9.75 2.55393 9.75 4.625C9.75 6.69607 8.07107 8.375 6 8.375C3.92893 8.375 2.25 6.69607 2.25 4.625ZM6 6.875C7.24264 6.875 8.25 5.86764 8.25 4.625C8.25 3.38236 7.24264 2.375 6 2.375C4.75736 2.375 3.75 3.38236 3.75 4.625C3.75 5.86764 4.75736 6.875 6 6.875Z" fill="#B0AFB2"/>
<path d="M1.75736 10.8824C0.809927 11.8298 0.212067 13.0615 0.0467944 14.3769C-0.00484043 14.7879 0.335786 15.125 0.75 15.125C1.16421 15.125 1.49362 14.7869 1.56234 14.3784C1.71653 13.4619 2.15217 12.6089 2.81802 11.943C3.66193 11.0991 4.80653 10.625 6 10.625C7.19347 10.625 8.33807 11.0991 9.18198 11.943C9.84783 12.6089 10.2835 13.4619 10.4377 14.3784C10.5064 14.7869 10.8358 15.125 11.25 15.125C11.6642 15.125 12.0048 14.7879 11.9532 14.3769C11.7879 13.0615 11.1901 11.8298 10.2426 10.8824C9.11742 9.75714 7.5913 9.125 6 9.125C4.4087 9.125 2.88258 9.75714 1.75736 10.8824Z" fill="#B0AFB2"/>
</svg>
