<svg width="14" height="14" viewBox="0 0 14 14" fill="none" xmlns="http://www.w3.org/2000/svg">
<g clip-path="url(#clip0_2621_1868)">
<rect width="14" height="6" rx="3" fill="#E3E3E3"/>
<path d="M1 3C1 4.10457 1.89543 5 3 5C4.10457 5 5 4.10457 5 3C5 1.89543 4.10457 1 3 1C1.89543 1 1 1.89543 1 3Z" fill="#747376"/>
<rect width="14" height="6" rx="3" transform="matrix(1 0 0 -1 0 14)" fill="#747376"/>
<path d="M9 11C9 9.89543 9.89543 9 11 9C12.1046 9 13 9.89543 13 11C13 12.1046 12.1046 13 11 13C9.89543 13 9 12.1046 9 11Z" fill="white"/>
</g>
<defs>
<clipPath id="clip0_2621_1868">
<rect width="14" height="14" fill="white"/>
</clipPath>
</defs>
</svg>
