<svg width="30" height="21" viewBox="0 0 30 21" fill="none" xmlns="http://www.w3.org/2000/svg">
<path d="M29.9988 11C23.3968 20.5319 20.9471 11.6607 16.9683 11.6607C15.4102 11.6607 15 12.9601 15 13.5312C15 12.9601 14.5917 11.6607 13.0337 11.6607C9.05288 11.6607 6.60509 20.5319 0.00124707 11C-0.125861 21.4533 9.49391 23.9348 14.9981 17.3858C20.5061 23.9248 30.1259 21.4533 29.9988 11Z" fill="#747376"/>
<path fill-rule="evenodd" clip-rule="evenodd" d="M23.2727 10C25.8835 10 28 7.76142 28 5C28 2.23858 25.8835 0 23.2727 0C20.6619 0 18.5455 2.23858 18.5455 5C18.5455 7.76142 20.6619 10 23.2727 10ZM23.2727 9.1875C25.4593 9.1875 27.2318 7.31269 27.2318 5C27.2318 2.68731 25.4593 0.8125 23.2727 0.8125C21.0862 0.8125 19.3136 2.68731 19.3136 5C19.3136 7.31269 21.0862 9.1875 23.2727 9.1875Z" fill="#747376"/>
<path d="M19.3432 7.5C19.7468 7.5 19.5678 6.92649 19.4357 6.54508C19.2191 5.91944 19.3073 5.34793 18.998 4.83076C18.1603 3.43008 16.6829 2.5 15 2.5C13.2654 2.5 11.7491 3.4881 10.9266 4.96117C10.6722 5.41679 10.6593 6.0084 10.5247 6.52806C10.4234 6.91912 10.2528 7.5 10.6568 7.5C10.8689 7.5 10.8433 7.31717 10.8636 7.09383C10.8878 6.82836 11.131 6.57053 11.1997 6.32189C11.6809 4.58275 13.2002 3.3125 15 3.3125C16.8075 3.3125 18.332 4.5936 18.8063 6.34414C18.8719 6.58593 19.1129 6.61744 19.1364 6.875C19.1567 7.09834 19.1311 7.5 19.3432 7.5Z" fill="#747376"/>
<path fill-rule="evenodd" clip-rule="evenodd" d="M6.72727 10C9.33807 10 11.4545 7.76142 11.4545 5C11.4545 2.23858 9.33807 0 6.72727 0C4.11647 0 2 2.23858 2 5C2 7.76142 4.11647 10 6.72727 10ZM6.72727 9.1875C8.91382 9.1875 10.6864 7.31269 10.6864 5C10.6864 2.68731 8.91382 0.8125 6.72727 0.8125C4.54073 0.8125 2.76818 2.68731 2.76818 5C2.76818 7.31269 4.54073 9.1875 6.72727 9.1875Z" fill="#747376"/>
</svg>
