<svg width="15" height="16" viewBox="0 0 15 16" fill="none" xmlns="http://www.w3.org/2000/svg">
<path d="M9.4375 7.81818C9.4375 6.9502 9.08982 6.11777 8.47095 5.50401C7.85208 4.89026 7.01271 4.54545 6.1375 4.54545C5.26229 4.54545 4.42292 4.89026 3.80405 5.50401C3.18518 6.11777 2.8375 6.9502 2.8375 7.81818C2.8375 11.6364 1.1875 12.7273 1.1875 12.7273H11.0875C11.0875 12.7273 9.4375 11.6364 9.4375 7.81818Z" fill="#747376" stroke="#747376" stroke-linecap="round" stroke-linejoin="round"/>
<path d="M7.08903 14.9091C6.99234 15.0744 6.85355 15.2116 6.68656 15.307C6.51957 15.4024 6.33024 15.4526 6.13753 15.4526C5.94483 15.4526 5.7555 15.4024 5.58851 15.307C5.42152 15.2116 5.28273 15.0744 5.18604 14.9091" stroke="#747376" stroke-linecap="round" stroke-linejoin="round"/>
<circle cx="11.375" cy="3.5" r="3" fill="#D9304F" stroke="#F6F8FA"/>
</svg>
