<svg width="14" height="16" viewBox="0 0 14 16" fill="none" xmlns="http://www.w3.org/2000/svg">
<path d="M11 5.4C12.1046 5.4 13 4.52696 13 3.45C13 2.37304 12.1046 1.5 11 1.5C9.89543 1.5 9 2.37304 9 3.45C9 4.52696 9.89543 5.4 11 5.4Z" stroke="#747376" stroke-width="1.5" stroke-linecap="round" stroke-linejoin="round"/>
<path d="M2.99999 9.95C4.10456 9.95 4.99998 9.07696 4.99998 8C4.99998 6.92305 4.10456 6.05 2.99999 6.05C1.89543 6.05 1 6.92305 1 8C1 9.07696 1.89543 9.95 2.99999 9.95Z" stroke="#747376" stroke-width="1.5" stroke-linecap="round" stroke-linejoin="round"/>
<path d="M11 14.5C12.1046 14.5 13 13.627 13 12.55C13 11.473 12.1046 10.6 11 10.6C9.89543 10.6 9 11.473 9 12.55C9 13.627 9.89543 14.5 11 14.5Z" stroke="#747376" stroke-width="1.5" stroke-linecap="round" stroke-linejoin="round"/>
<path d="M4.72668 8.9815L9.28 11.5685" stroke="#747376" stroke-width="1.5" stroke-linecap="round" stroke-linejoin="round"/>
<path d="M9.27333 4.4315L4.72668 7.0185" stroke="#747376" stroke-width="1.5" stroke-linecap="round" stroke-linejoin="round"/>
</svg>
