<svg width="14" height="12" viewBox="0 0 14 12" fill="none" xmlns="http://www.w3.org/2000/svg">
<path d="M7.20281 5.50361C7.20281 5.27744 7.04168 4.76253 6.42639 4.76253C5.8111 4.76253 4.90267 5.76923 4.01378 6.11538L1.86498 1.2275H1.27276C1.11569 1.2275 0.965061 1.16283 0.853998 1.04773C0.742936 0.932633 0.680542 0.776524 0.680542 0.613748C0.680542 0.450972 0.742936 0.294863 0.853998 0.179763C0.965061 0.0646626 1.11569 0 1.27276 0H2.24415C2.35575 3.32483e-05 2.46503 0.0329465 2.55927 0.0949013C2.6535 0.156856 2.7288 0.245299 2.77638 0.349916L3.17401 1.2275H11.9394C12.0421 1.2276 12.143 1.25548 12.2321 1.30838C12.3212 1.36129 12.3955 1.43738 12.4475 1.52913C12.4996 1.62089 12.5276 1.72513 12.5289 1.83156C12.5301 1.93799 12.5046 2.04291 12.4547 2.13596L10.3304 6.12652C9.49054 5.77083 8.82218 4.76253 7.97923 4.76253C7.36452 4.76253 7.20281 5.27744 7.20281 5.50361Z" fill="#747376"/>
<path d="M13.1244 5.32985C10.5179 9.1042 9.55224 5.59109 7.97902 5.59109C7.36373 5.59109 7.2026 6.106 7.2026 6.33217C7.2026 6.106 7.04109 5.59109 6.42618 5.59109C4.85277 5.59109 3.88753 9.1042 1.28101 5.32985C1.23101 9.46926 5.02928 10.4477 7.20318 7.85896C9.37611 10.4477 13.1746 9.46926 13.1244 5.32985Z" fill="#747376"/>
<path d="M3.47892 9.83096C3.34633 9.94635 3.23975 10.0904 3.16667 10.2531C3.09358 10.4158 3.05578 10.5931 3.05591 10.7725C3.05591 11.4476 3.58294 12 4.23438 12C4.46897 12.0003 4.69836 11.9284 4.89339 11.7933C5.08842 11.6582 5.2403 11.4661 5.3297 11.2413C5.41911 11.0166 5.44201 10.7693 5.3955 10.531C5.34899 10.2927 5.23516 10.0742 5.06849 9.90309C4.52607 10.0221 3.98 9.99695 3.47892 9.83096Z" fill="#747376"/>
<path d="M9.32759 9.9009C9.21672 10.0151 9.12876 10.1509 9.06877 10.3005C9.00877 10.4501 8.97793 10.6105 8.97803 10.7725C8.97803 11.4476 9.50506 12 10.1567 12C10.3997 12.0003 10.6368 11.923 10.836 11.7786C11.0351 11.6343 11.1865 11.4299 11.2696 11.1933C11.3527 10.9567 11.3635 10.6993 11.3005 10.4561C11.2375 10.2128 11.1038 9.99564 10.9175 9.83394C10.4161 9.99814 9.87135 10.0217 9.32759 9.9009Z" fill="#747376"/>
</svg>
