<svg width="78" height="77" viewBox="0 0 78 77" fill="none" xmlns="http://www.w3.org/2000/svg">
<rect width="97" height="97" rx="10" fill="#F5F5F5"/>
<path d="M57.8812 11.1178L45.1532 30.0278C44.273 31.3156 45.9656 32.8744 47.1842 31.79L59.7092 20.8778C60.0477 20.6067 60.5216 20.81 60.5216 21.2844V55.3767C60.5216 55.8511 59.9123 56.0544 59.6415 55.7156L21.7281 10.3044C20.5094 8.81333 18.7492 8 16.7858 8H15.4317C11.9112 8 9 10.9144 9 14.5067V62.4933C9 66.0856 11.9112 69 15.4994 69C17.7336 69 19.8324 67.8478 21.0511 65.8822L33.7791 46.9722C34.6593 45.6844 32.9667 44.1256 31.7481 45.21L19.2231 56.0544C18.8846 56.3256 18.4107 56.1222 18.4107 55.6478V21.6233C18.4107 21.1489 19.02 20.9456 19.2908 21.2844L57.2042 66.6956C58.4229 68.1867 60.2508 69 62.1465 69H63.5006C67.0888 69 70 66.0856 70 62.4933V14.5067C70 10.9144 67.0888 8 63.5006 8C61.1987 8 59.0999 9.15222 57.8812 11.1178Z" fill="black"/>
<rect x="19" y="29.8375" width="40.425" height="17.325" rx="8.6625" fill="#588CA3"/>
<path d="M34.8335 36.6875H33.2241V41.5H32.2944V36.6875H30.689V35.8984H34.8335V36.6875ZM38.7983 41.5H35.6538V35.8984H38.6733V36.6875H36.5835V38.2734H38.5093V39.0586H36.5835V40.7148H38.7983V41.5ZM39.5366 41.2773V40.3203C39.6226 40.3984 39.7241 40.4688 39.8413 40.5312C39.9611 40.5938 40.0874 40.6471 40.2202 40.6914C40.353 40.7331 40.4858 40.7656 40.6187 40.7891C40.7515 40.8125 40.8739 40.8242 40.9858 40.8242C41.3765 40.8242 41.6668 40.7591 41.8569 40.6289C42.0496 40.4987 42.146 40.3099 42.146 40.0625C42.146 39.9297 42.1134 39.8151 42.0483 39.7188C41.9858 39.6198 41.8973 39.5299 41.7827 39.4492C41.6681 39.3685 41.5327 39.2917 41.3765 39.2188C41.2228 39.1432 41.0575 39.0651 40.8804 38.9844C40.6903 38.8828 40.5132 38.7799 40.3491 38.6758C40.1851 38.5716 40.0418 38.457 39.9194 38.332C39.7996 38.2044 39.7046 38.0612 39.6343 37.9023C39.5666 37.7435 39.5327 37.5573 39.5327 37.3438C39.5327 37.0807 39.5913 36.8529 39.7085 36.6602C39.8283 36.4648 39.9845 36.3047 40.1772 36.1797C40.3726 36.0521 40.5939 35.9583 40.8413 35.8984C41.0887 35.8359 41.3413 35.8047 41.5991 35.8047C42.1851 35.8047 42.6121 35.8711 42.8804 36.0039V36.9219C42.5627 36.6927 42.1538 36.5781 41.6538 36.5781C41.5158 36.5781 41.3778 36.5911 41.2397 36.6172C41.1043 36.6432 40.9819 36.6862 40.8726 36.7461C40.7658 36.806 40.6785 36.8828 40.6108 36.9766C40.5431 37.0703 40.5093 37.1836 40.5093 37.3164C40.5093 37.4414 40.5353 37.5495 40.5874 37.6406C40.6395 37.7318 40.715 37.8151 40.814 37.8906C40.9155 37.9661 41.0379 38.0404 41.1812 38.1133C41.327 38.1836 41.495 38.2604 41.6851 38.3438C41.8804 38.4453 42.064 38.5521 42.2358 38.6641C42.4103 38.776 42.5627 38.8997 42.6929 39.0352C42.8257 39.1706 42.9299 39.3216 43.0054 39.4883C43.0835 39.6523 43.1226 39.8398 43.1226 40.0508C43.1226 40.3346 43.0653 40.5742 42.9507 40.7695C42.8361 40.9648 42.6812 41.1237 42.4858 41.2461C42.2931 41.3685 42.0705 41.457 41.8179 41.5117C41.5653 41.5664 41.2983 41.5938 41.0171 41.5938C40.9233 41.5938 40.8075 41.5859 40.6694 41.5703C40.534 41.5573 40.3947 41.5365 40.2515 41.5078C40.1082 41.4818 39.9728 41.4492 39.8452 41.4102C39.7176 41.3711 39.6147 41.3268 39.5366 41.2773ZM47.7476 36.6875H46.1382V41.5H45.2085V36.6875H43.603V35.8984H47.7476V36.6875Z" fill="white"/>
</svg>
