<svg width="16" height="17" viewBox="0 0 16 17" fill="none" xmlns="http://www.w3.org/2000/svg">
<path d="M12.6875 5.5909C12.6875 4.43359 12.2134 3.32368 11.3695 2.50534C10.5256 1.687 9.38097 1.22726 8.1875 1.22726C6.99403 1.22726 5.84943 1.687 5.00552 2.50534C4.16161 3.32368 3.6875 4.43359 3.6875 5.5909C3.6875 10.6818 1.4375 12.1364 1.4375 12.1364H14.9375C14.9375 12.1364 12.6875 10.6818 12.6875 5.5909Z" stroke="#747376" stroke-linecap="round" stroke-linejoin="round"/>
<path d="M9.48489 15.0454C9.35303 15.2659 9.16377 15.4488 8.93606 15.576C8.70835 15.7032 8.45018 15.7701 8.18739 15.7701C7.92461 15.7701 7.66643 15.7032 7.43872 15.576C7.21101 15.4488 7.02175 15.2659 6.88989 15.0454" stroke="#747376" stroke-linecap="round" stroke-linejoin="round"/>
</svg>
