<svg width="18" height="21" viewBox="0 0 18 21" fill="none" xmlns="http://www.w3.org/2000/svg">
<path d="M11.3333 10.2C11.3333 9.35131 10.9821 8.53737 10.357 7.93726C9.7319 7.33714 8.88406 7 8 7C7.11595 7 6.2681 7.33714 5.64298 7.93726C5.01786 8.53737 4.66667 9.35131 4.66667 10.2C4.66667 13.9333 3 15 3 15H13C13 15 11.3333 13.9333 11.3333 10.2Z" stroke="#747376" stroke-linecap="round" stroke-linejoin="round"/>
<path d="M9 17C8.89838 17.3042 8.75251 17.5566 8.57701 17.7321C8.40151 17.9076 8.20253 18 8 18C7.79747 18 7.59849 17.9076 7.42299 17.7321C7.24749 17.5566 7.10162 17.3042 7 17" stroke="#747376" stroke-linecap="round" stroke-linejoin="round"/>
<circle cx="12.5" cy="5.5" r="4.5" fill="#D9304F" stroke="white" stroke-width="2"/>
</svg>
