<svg width="16" height="20" viewBox="0 0 16 20" fill="none" xmlns="http://www.w3.org/2000/svg">
<path d="M12.1875 8.59093C12.1875 7.43362 11.7134 6.32372 10.8695 5.50537C10.0256 4.68703 8.88097 4.22729 7.6875 4.22729C6.49403 4.22729 5.34943 4.68703 4.50552 5.50537C3.66161 6.32372 3.1875 7.43362 3.1875 8.59093C3.1875 13.6818 0.9375 15.1364 0.9375 15.1364H14.4375C14.4375 15.1364 12.1875 13.6818 12.1875 8.59093Z" stroke="#747376" stroke-linecap="round" stroke-linejoin="round"/>
<path d="M8.98514 18.0454C8.85328 18.2658 8.66402 18.4488 8.43631 18.576C8.20859 18.7032 7.95042 18.7701 7.68764 18.7701C7.42485 18.7701 7.16668 18.7032 6.93897 18.576C6.71125 18.4488 6.52199 18.2658 6.39014 18.0454" stroke="#747376" stroke-linecap="round" stroke-linejoin="round"/>
<path d="M14.8333 4.29997C14.8333 5.77273 13.6394 6.96663 12.1667 6.96663C10.6939 6.96663 9.5 5.77273 9.5 4.29997C9.5 2.82721 10.6939 1.6333 12.1667 1.6333C13.6394 1.6333 14.8333 2.82721 14.8333 4.29997Z" fill="#D9304F" stroke="white" stroke-width="2"/>
</svg>
