<svg width="22" height="19" viewBox="0 0 22 19" fill="none" xmlns="http://www.w3.org/2000/svg">
<path d="M9.36333 1.84016L1.25653 15.2304C1.08938 15.5168 1.00094 15.8415 1.00001 16.1722C0.999072 16.5029 1.08567 16.8281 1.25119 17.1154C1.41671 17.4027 1.65538 17.6421 1.94346 17.8098C2.23153 17.9775 2.55897 18.0677 2.8932 18.0713H19.1068C19.441 18.0677 19.7685 17.9775 20.0565 17.8098C20.3446 17.6421 20.5833 17.4027 20.7488 17.1154C20.9143 16.8281 21.0009 16.5029 21 16.1722C20.9991 15.8415 20.9106 15.5168 20.7435 15.2304L12.6367 1.84016C12.466 1.56185 12.2258 1.33175 11.9391 1.17206C11.6524 1.01236 11.329 0.928467 11 0.928467C10.671 0.928467 10.3476 1.01236 10.0609 1.17206C9.7742 1.33175 9.53395 1.56185 9.36333 1.84016V1.84016Z" stroke="#FF6442" stroke-width="1.5" stroke-linecap="round" stroke-linejoin="round"/>
<path d="M11 6.70752V10.4954" stroke="#FF6442" stroke-width="1.5" stroke-linecap="round" stroke-linejoin="round"/>
<path d="M11 14.2837H11.0078" stroke="#FF6442" stroke-width="1.5" stroke-linecap="round" stroke-linejoin="round"/>
</svg>
