<svg width="16" height="16" viewBox="0 0 16 16" fill="none" xmlns="http://www.w3.org/2000/svg">
<g clip-path="url(#clip0_2691_1732)">
<path d="M15.7061 2.20719L13.792 0.293125C13.6061 0.105344 13.3498 0 13.0842 0H7.9717C6.86701 0 5.9717 0.895625 5.9717 2L5.97231 10C5.99982 11.1062 6.8967 12 7.99982 12H13.9998C15.0998 12 15.9998 11.1 15.9998 10V2.91406C15.9998 2.64906 15.8936 2.39469 15.7061 2.20719ZM14.4998 10C14.4998 10.2761 14.2759 10.5 13.9998 10.5H7.9717C7.69551 10.5 7.4717 10.2761 7.4717 10V2.00406C7.4717 1.72794 7.69557 1.50406 7.9717 1.50406H11.9717L11.9998 3C11.9998 3.55219 12.4476 4 12.9998 4H14.4717V10H14.4998ZM8.49982 14C8.49982 14.2761 8.27595 14.5 7.99982 14.5H1.9717C1.69551 14.5 1.4717 14.2761 1.4717 14L1.4992 6.00313C1.4992 5.727 1.72307 5.50313 1.9992 5.50313H4.99982V4H1.99951C0.894824 4 -0.000488281 4.89531 -0.000488281 6L-0.000182031 14C-0.000113281 15.1031 0.895449 16 1.99982 16H7.99982C9.09982 16 9.99982 15.1 9.99982 14V13H8.52795L8.49982 14Z" fill="#9C9CA4"/>
</g>
<defs>
<clipPath id="clip0_2691_1732">
<rect width="16" height="16" fill="white"/>
</clipPath>
</defs>
</svg>
