<svg width="97" height="97" viewBox="0 0 97 97" fill="none" xmlns="http://www.w3.org/2000/svg">
<rect width="97" height="97" rx="10" fill="#F5F5F5"/>
<g filter="url(#filter0_dd_309_12563)">
<path d="M48.3271 86.5946C69.4945 86.5946 86.6541 69.5263 86.6541 48.4714C86.6541 27.4166 69.4945 10.3482 48.3271 10.3482C27.1596 10.3482 10 27.4166 10 48.4714C10 69.5263 27.1596 86.5946 48.3271 86.5946Z" fill="#D9304F"/>
</g>
<path d="M82.1494 49.057C67.2641 69.7365 61.7464 50.4865 52.7618 50.4865C49.2494 50.4865 48.327 53.3084 48.327 54.5454C48.327 53.3167 47.4047 50.4865 43.8923 50.4865C34.9035 50.4865 29.39 69.7365 14.5006 49.053C14.2164 71.7435 35.9123 77.1088 48.327 62.917C60.7418 77.1088 82.4376 71.7475 82.1494 49.057Z" fill="white"/>
<path d="M80.4118 40.5461C78.7442 41.439 76.8995 42.3195 75.3223 43.0035C74.8017 43.2243 74.2413 43.3371 73.6752 43.3353H22.983C22.4169 43.3375 21.8564 43.2247 21.3359 43.0035C19.7588 42.3278 17.9141 41.4471 16.2424 40.5461C16.094 40.4672 15.9777 40.3397 15.9132 40.185C15.8486 40.0306 15.8398 39.8586 15.8882 39.6982C16.0859 39.0389 16.4647 37.8716 17 36.5692C17.0386 36.4757 17.0961 36.3911 17.169 36.3209C17.2419 36.2505 17.3286 36.1961 17.4237 36.1607C17.5189 36.1253 17.6203 36.1099 17.7217 36.1153C17.8231 36.1207 17.9222 36.1469 18.0129 36.1923C19.6353 37.0115 20.9283 37.5931 22.1306 38.1009V28.2711C22.1308 28.0988 22.192 27.932 22.3035 27.8001C25.4779 24.0037 29.4535 20.9488 33.9482 18.8522C38.4428 16.7556 43.3463 15.6687 48.3107 15.6687C53.2749 15.6687 58.1784 16.7556 62.673 18.8522C67.1677 20.9488 71.1433 24.0037 74.3177 27.8001C74.4292 27.932 74.4904 28.0988 74.4907 28.2711V38.1009C75.7012 37.5931 76.9941 37.0115 78.6082 36.1923C78.6986 36.1463 78.7976 36.1197 78.8988 36.114C79 36.1083 79.1013 36.1236 79.1964 36.1591C79.2913 36.1946 79.3778 36.2493 79.4502 36.32C79.5227 36.3905 79.5794 36.4754 79.617 36.5692C80.1565 37.8716 80.5313 39.0266 80.7289 39.6982C80.7797 39.8545 80.7761 40.0231 80.7185 40.1771C80.6609 40.3309 80.5529 40.4609 80.4118 40.5461Z" fill="white"/>
<defs>
<filter id="filter0_dd_309_12563" x="4" y="6.34818" width="88.6541" height="88.2464" filterUnits="userSpaceOnUse" color-interpolation-filters="sRGB">
<feFlood flood-opacity="0" result="BackgroundImageFix"/>
<feColorMatrix in="SourceAlpha" type="matrix" values="0 0 0 0 0 0 0 0 0 0 0 0 0 0 0 0 0 0 127 0" result="hardAlpha"/>
<feOffset dy="2"/>
<feGaussianBlur stdDeviation="1"/>
<feColorMatrix type="matrix" values="0 0 0 0 0.150486 0 0 0 0 0.458846 0 0 0 0 0.820833 0 0 0 0.04 0"/>
<feBlend mode="normal" in2="BackgroundImageFix" result="effect1_dropShadow_309_12563"/>
<feColorMatrix in="SourceAlpha" type="matrix" values="0 0 0 0 0 0 0 0 0 0 0 0 0 0 0 0 0 0 127 0" result="hardAlpha"/>
<feOffset dy="2"/>
<feGaussianBlur stdDeviation="3"/>
<feColorMatrix type="matrix" values="0 0 0 0 0 0 0 0 0 0 0 0 0 0 0 0 0 0 0.09 0"/>
<feBlend mode="normal" in2="effect1_dropShadow_309_12563" result="effect2_dropShadow_309_12563"/>
<feBlend mode="normal" in="SourceGraphic" in2="effect2_dropShadow_309_12563" result="shape"/>
</filter>
</defs>
</svg>
