<svg width="97" height="97" viewBox="0 0 97 97" fill="none" xmlns="http://www.w3.org/2000/svg">
<rect width="97" height="97" rx="10" fill="#F5F5F5"/>
<g filter="url(#filter0_dd_309_12646)">
<path d="M83.1651 12.8082L53.12 35.1231L58.6761 21.9576L83.1651 12.8082Z" fill="#E2761B" stroke="#E2761B" stroke-linecap="round" stroke-linejoin="round"/>
<path d="M13.8047 12.8082L43.6082 35.3345L38.3239 21.9576L13.8047 12.8082Z" fill="#E4761B" stroke="#E4761B" stroke-linecap="round" stroke-linejoin="round"/>
<path d="M72.3549 64.5341L64.353 76.7937L81.4741 81.5043L86.3961 64.8059L72.3549 64.5341Z" fill="#E4761B" stroke="#E4761B" stroke-linecap="round" stroke-linejoin="round"/>
<path d="M10.6342 64.8059L15.5259 81.5043L32.6471 76.7937L24.6451 64.5341L10.6342 64.8059Z" fill="#E4761B" stroke="#E4761B" stroke-linecap="round" stroke-linejoin="round"/>
<path d="M31.6808 43.8196L26.9099 51.0365L43.9102 51.7914L43.3063 33.5227L31.6808 43.8196Z" fill="#E4761B" stroke="#E4761B" stroke-linecap="round" stroke-linejoin="round"/>
<path d="M65.2891 43.8196L53.5126 33.3114L53.1201 51.7914L70.0903 51.0365L65.2891 43.8196Z" fill="#E4761B" stroke="#E4761B" stroke-linecap="round" stroke-linejoin="round"/>
<path d="M32.6471 76.7937L42.8534 71.8114L34.0361 64.9267L32.6471 76.7937Z" fill="#E4761B" stroke="#E4761B" stroke-linecap="round" stroke-linejoin="round"/>
<path d="M54.1165 71.8114L64.353 76.7937L62.9337 64.9267L54.1165 71.8114Z" fill="#E4761B" stroke="#E4761B" stroke-linecap="round" stroke-linejoin="round"/>
<path d="M64.353 76.7937L54.1165 71.8114L54.9318 78.4847L54.8412 81.2929L64.353 76.7937Z" fill="#D7C1B3" stroke="#D7C1B3" stroke-linecap="round" stroke-linejoin="round"/>
<path d="M32.6471 76.7937L42.1588 81.2929L42.0984 78.4847L42.8533 71.8114L32.6471 76.7937Z" fill="#D7C1B3" stroke="#D7C1B3" stroke-linecap="round" stroke-linejoin="round"/>
<path d="M42.3098 60.518L33.7945 58.0117L39.8035 55.2639L42.3098 60.518Z" fill="#233447" stroke="#233447" stroke-linecap="round" stroke-linejoin="round"/>
<path d="M54.66 60.518L57.1663 55.2639L63.2055 58.0117L54.66 60.518Z" fill="#233447" stroke="#233447" stroke-linecap="round" stroke-linejoin="round"/>
<path d="M32.6471 76.7937L34.0965 64.5341L24.6451 64.8059L32.6471 76.7937Z" fill="#CD6116" stroke="#CD6116" stroke-linecap="round" stroke-linejoin="round"/>
<path d="M62.9036 64.5341L64.353 76.7937L72.3549 64.8059L62.9036 64.5341Z" fill="#CD6116" stroke="#CD6116" stroke-linecap="round" stroke-linejoin="round"/>
<path d="M70.0903 51.0364L53.1201 51.7913L54.6903 60.518L57.1965 55.2639L63.2357 58.0117L70.0903 51.0364Z" fill="#CD6116" stroke="#CD6116" stroke-linecap="round" stroke-linejoin="round"/>
<path d="M33.7945 58.0117L39.8337 55.2639L42.3098 60.518L43.9102 51.7913L26.9098 51.0364L33.7945 58.0117Z" fill="#CD6116" stroke="#CD6116" stroke-linecap="round" stroke-linejoin="round"/>
<path d="M26.9098 51.0365L34.0361 64.9267L33.7945 58.0117L26.9098 51.0365Z" fill="#E4751F" stroke="#E4751F" stroke-linecap="round" stroke-linejoin="round"/>
<path d="M63.2357 58.0117L62.9337 64.9266L70.0902 51.0364L63.2357 58.0117Z" fill="#E4751F" stroke="#E4751F" stroke-linecap="round" stroke-linejoin="round"/>
<path d="M43.9102 51.7913L42.3098 60.518L44.3028 70.8149L44.7557 57.2568L43.9102 51.7913Z" fill="#E4751F" stroke="#E4751F" stroke-linecap="round" stroke-linejoin="round"/>
<path d="M53.12 51.7913L52.3047 57.2266L52.667 70.8149L54.6902 60.518L53.12 51.7913Z" fill="#E4751F" stroke="#E4751F" stroke-linecap="round" stroke-linejoin="round"/>
<path d="M54.6902 60.518L52.6671 70.8149L54.1165 71.8114L62.9338 64.9267L63.2357 58.0118L54.6902 60.518Z" fill="#F6851B" stroke="#F6851B" stroke-linecap="round" stroke-linejoin="round"/>
<path d="M33.7945 58.0118L34.0361 64.9267L42.8534 71.8114L44.3028 70.8149L42.3098 60.518L33.7945 58.0118Z" fill="#F6851B" stroke="#F6851B" stroke-linecap="round" stroke-linejoin="round"/>
<path d="M54.8412 81.2929L54.9318 78.4847L54.1769 77.8204H42.7929L42.0984 78.4847L42.1588 81.2929L32.6471 76.7937L35.9686 79.5114L42.7024 84.1918H54.2675L61.0314 79.5114L64.3529 76.7937L54.8412 81.2929Z" fill="#C0AD9E" stroke="#C0AD9E" stroke-linecap="round" stroke-linejoin="round"/>
<path d="M54.1165 71.8114L52.6671 70.8149H44.3028L42.8534 71.8114L42.0984 78.4847L42.793 77.8204H54.1769L54.9318 78.4847L54.1165 71.8114Z" fill="#161616" stroke="#161616" stroke-linecap="round" stroke-linejoin="round"/>
<path d="M84.4333 36.5725L87 24.2525L83.1651 12.8082L54.1165 34.3682L65.289 43.8196L81.0816 48.4396L84.5843 44.3631L83.0745 43.2761L85.4902 41.0718L83.618 39.6223L86.0337 37.7804L84.4333 36.5725Z" fill="#763D16" stroke="#763D16" stroke-linecap="round" stroke-linejoin="round"/>
<path d="M10 24.2525L12.5667 36.5725L10.9361 37.7804L13.3518 39.6223L11.5098 41.0718L13.9255 43.2761L12.4157 44.3631L15.8882 48.4396L31.6808 43.8196L42.8533 34.3682L13.8047 12.8082L10 24.2525Z" fill="#763D16" stroke="#763D16" stroke-linecap="round" stroke-linejoin="round"/>
<path d="M81.0816 48.4396L65.289 43.8196L70.0902 51.0365L62.9337 64.9267L72.3549 64.8059H86.3961L81.0816 48.4396Z" fill="#F6851B" stroke="#F6851B" stroke-linecap="round" stroke-linejoin="round"/>
<path d="M31.6808 43.8196L15.8882 48.4396L10.6341 64.8059H24.6451L34.0361 64.9267L26.9098 51.0365L31.6808 43.8196Z" fill="#F6851B" stroke="#F6851B" stroke-linecap="round" stroke-linejoin="round"/>
<path d="M53.12 51.7914L54.1165 34.3682L58.7063 21.9576H38.3239L42.8534 34.3682L43.9102 51.7914L44.2726 57.287L44.3028 70.8149H52.6671L52.7275 57.287L53.12 51.7914Z" fill="#F6851B" stroke="#F6851B" stroke-linecap="round" stroke-linejoin="round"/>
</g>
<defs>
<filter id="filter0_dd_309_12646" x="3.5" y="8.30815" width="90" height="84.3836" filterUnits="userSpaceOnUse" color-interpolation-filters="sRGB">
<feFlood flood-opacity="0" result="BackgroundImageFix"/>
<feColorMatrix in="SourceAlpha" type="matrix" values="0 0 0 0 0 0 0 0 0 0 0 0 0 0 0 0 0 0 127 0" result="hardAlpha"/>
<feOffset dy="2"/>
<feGaussianBlur stdDeviation="1"/>
<feColorMatrix type="matrix" values="0 0 0 0 0.150486 0 0 0 0 0.458846 0 0 0 0 0.820833 0 0 0 0.04 0"/>
<feBlend mode="normal" in2="BackgroundImageFix" result="effect1_dropShadow_309_12646"/>
<feColorMatrix in="SourceAlpha" type="matrix" values="0 0 0 0 0 0 0 0 0 0 0 0 0 0 0 0 0 0 127 0" result="hardAlpha"/>
<feOffset dy="2"/>
<feGaussianBlur stdDeviation="3"/>
<feColorMatrix type="matrix" values="0 0 0 0 0 0 0 0 0 0 0 0 0 0 0 0 0 0 0.09 0"/>
<feBlend mode="normal" in2="effect1_dropShadow_309_12646" result="effect2_dropShadow_309_12646"/>
<feBlend mode="normal" in="SourceGraphic" in2="effect2_dropShadow_309_12646" result="shape"/>
</filter>
</defs>
</svg>
