<svg width="98" height="97" viewBox="0 0 98 97" fill="none" xmlns="http://www.w3.org/2000/svg">
<rect width="97" height="97" rx="10" fill="#F5F5F5"/>
<g clip-path="url(#clip0_309_12791)" filter="url(#filter0_dd_309_12791)">
<path d="M71.7026 13.9739L55.636 37.8174C54.525 39.4412 56.6615 41.4068 58.1998 40.0394L74.01 26.2802C74.4373 25.9384 75.0355 26.1948 75.0355 26.793V69.7797C75.0355 70.3779 74.2664 70.6343 73.9245 70.207L26.0666 12.9484C24.5283 11.0683 22.3063 10.0427 19.828 10.0427H18.1188C13.6748 10.0427 10 13.7175 10 18.2469V78.7531C10 83.2825 13.6748 86.9573 18.2042 86.9573C21.0244 86.9573 23.6737 85.5044 25.212 83.0261L41.2786 59.1826C42.3896 57.5588 40.2531 55.5932 38.7148 56.9606L22.9046 70.6343C22.4772 70.9761 21.879 70.7198 21.879 70.1215V27.2203C21.879 26.6221 22.6482 26.3657 22.99 26.793L70.8479 84.0516C72.3862 85.9317 74.6937 86.9573 77.0866 86.9573H78.7958C83.3252 86.9573 87 83.2825 87 78.7531V18.2469C87 13.7175 83.3252 10.0427 78.7958 10.0427C75.8901 10.0427 73.2408 11.4956 71.7026 13.9739Z" fill="black"/>
</g>
<g clip-path="url(#clip1_309_12791)">
<rect x="59" y="2" width="44" height="16" rx="8" transform="rotate(30 59 2)" fill="#588CA3"/>
<path d="M62.9279 9.38612L62.2858 10.4983L63.0935 10.9646L62.654 11.7257L61.8464 11.2594L60.3718 13.8135C60.2709 13.9883 60.2314 14.1347 60.2535 14.2527C60.2801 14.3695 60.3821 14.4792 60.5597 14.5817C60.6781 14.6501 60.8061 14.7051 60.9436 14.7469L60.4846 15.5419C60.2132 15.4717 59.9689 15.3739 59.7519 15.2485C58.9625 14.7928 58.8193 14.1294 59.3222 13.2583L60.8188 10.6661L60.0661 10.2316L60.5056 9.47042L61.2583 9.90499L61.9004 8.79286L62.9279 9.38612ZM63.2067 17.2432C62.5554 16.8672 62.1449 16.3576 61.9749 15.7145C61.8094 15.0702 61.9236 14.4069 62.3175 13.7247L62.3907 13.5978C62.6544 13.1411 62.977 12.7842 63.3585 12.5271C63.7444 12.2688 64.1544 12.1315 64.5886 12.1153C65.0227 12.099 65.4357 12.204 65.8275 12.4303C66.4505 12.79 66.8164 13.2662 66.9252 13.859C67.0369 14.4535 66.8827 15.1144 66.4628 15.8417L66.2235 16.2561L63.2339 14.53C63.0468 14.9257 62.9997 15.2969 63.0926 15.6438C63.1884 15.9922 63.404 16.2633 63.7395 16.457C64.2103 16.7288 64.7035 16.7599 65.2193 16.5502L65.468 17.3986C65.1269 17.5663 64.7588 17.6375 64.3636 17.6123C63.9729 17.586 63.5872 17.4629 63.2067 17.2432ZM65.3472 13.2524C65.0653 13.0897 64.78 13.0565 64.4913 13.1529C64.2054 13.251 63.9367 13.4624 63.6854 13.7871L65.6432 14.9174L65.6872 14.8413C65.8632 14.4844 65.9213 14.1721 65.8615 13.9046C65.8034 13.6342 65.6319 13.4168 65.3472 13.2524ZM69.1745 18.9183C69.2803 18.7351 69.2847 18.5516 69.1878 18.3678C69.0938 18.1857 68.8931 17.9571 68.5859 17.682C68.2786 17.4069 68.0405 17.1454 67.8717 16.8975C67.5018 16.3532 67.4528 15.8457 67.7246 15.3749C67.9525 14.9802 68.3092 14.7464 68.7949 14.6735C69.2805 14.6005 69.7799 14.7122 70.293 15.0084C70.8399 15.3242 71.2029 15.7142 71.3821 16.1785C71.5642 16.6445 71.5307 17.0931 71.2817 17.5244L70.2541 16.9312C70.368 16.7338 70.3891 16.528 70.3174 16.3137C70.2473 16.0965 70.0911 15.918 69.8486 15.778C69.6231 15.6478 69.4083 15.5934 69.2043 15.6147C69.0032 15.6376 68.8521 15.7364 68.7512 15.9112C68.6601 16.0691 68.6555 16.23 68.7375 16.3939C68.8196 16.5577 69.0361 16.8012 69.3872 17.1241C69.7399 17.4443 69.9946 17.7323 70.1513 17.9882C70.3125 18.2428 70.3984 18.4879 70.409 18.7233C70.4225 18.9604 70.3585 19.2016 70.2169 19.4468C69.9792 19.8584 69.6158 20.094 69.1266 20.1536C68.639 20.2104 68.1189 20.0793 67.5664 19.7603C67.1914 19.5438 66.8964 19.2833 66.6814 18.9787C66.4663 18.6741 66.3454 18.3562 66.3186 18.025C66.2918 17.6938 66.3574 17.3915 66.5152 17.118L67.5132 17.6942C67.3873 17.9448 67.3707 18.1851 67.4634 18.4153C67.5576 18.6426 67.7443 18.8368 68.0234 18.998C68.294 19.1542 68.5291 19.2223 68.7287 19.2022C68.9299 19.1793 69.0785 19.0846 69.1745 18.9183ZM74.9373 16.3197L74.2952 17.4318L75.1028 17.8982L74.6634 18.6593L73.8557 18.193L72.3811 20.7471C72.2802 20.9219 72.2408 21.0683 72.2629 21.1863C72.2894 21.3031 72.3915 21.4128 72.5691 21.5153C72.6875 21.5836 72.8154 21.6387 72.9529 21.6805L72.4939 22.4755C72.2225 22.4053 71.9783 22.3075 71.7612 22.1821C70.9718 21.7264 70.8286 21.063 71.3316 20.1919L72.8282 17.5997L72.0755 17.1652L72.5149 16.404L73.2676 16.8386L73.9097 15.7265L74.9373 16.3197ZM79.0016 20.1491L78.7261 20.6948C79.3004 20.4813 79.8624 20.5333 80.4121 20.8507C81.3649 21.4008 81.5349 22.2263 80.9219 23.327L79.1763 26.3505L78.1488 25.7572L79.8602 22.793C80.0278 22.5026 80.0881 22.2517 80.041 22.0403C79.9983 21.8278 79.8346 21.6393 79.5499 21.4749C79.1355 21.2356 78.7186 21.2449 78.2991 21.5026L76.4192 24.7587L75.3917 24.1654L78.0333 19.5901L79.0016 20.1491ZM82.1932 28.2051C81.542 27.8291 81.1315 27.3196 80.9615 26.6764C80.796 26.0321 80.9102 25.3688 81.3041 24.6866L81.3773 24.5597C81.641 24.103 81.9636 23.7461 82.3451 23.489C82.731 23.2307 83.141 23.0934 83.5751 23.0772C84.0093 23.061 84.4222 23.166 84.8141 23.3922C85.4371 23.7519 85.803 24.2282 85.9118 24.821C86.0234 25.4154 85.8693 26.0763 85.4494 26.8036L85.2101 27.218L82.2205 25.4919C82.0334 25.8876 81.9863 26.2588 82.0792 26.6057C82.175 26.9542 82.3906 27.2252 82.7261 27.4189C83.1969 27.6907 83.6901 27.7218 84.2059 27.5121L84.4546 28.3605C84.1135 28.5282 83.7454 28.5994 83.3502 28.5742C82.9595 28.5479 82.5738 28.4248 82.1932 28.2051ZM84.3338 24.2143C84.0519 24.0516 83.7666 24.0184 83.4779 24.1148C83.192 24.2129 82.9233 24.4243 82.672 24.749L84.6298 25.8794L84.6738 25.8032C84.8498 25.4463 84.9079 25.134 84.8481 24.8665C84.79 24.5961 84.6185 24.3787 84.3338 24.2143ZM89.4499 24.6986L88.8079 25.8108L89.6155 26.2771L89.1761 27.0382L88.3684 26.5719L86.8938 29.126C86.7929 29.3008 86.7535 29.4472 86.7756 29.5652C86.8021 29.682 86.9042 29.7917 87.0818 29.8942C87.2002 29.9626 87.3281 30.0176 87.4656 30.0594L87.0066 30.8544C86.7352 30.7842 86.491 30.6864 86.2739 30.561C85.4845 30.1053 85.3413 29.4419 85.8443 28.5708L87.3408 25.9786L86.5881 25.5441L87.0276 24.7829L87.7803 25.2175L88.4224 24.1054L89.4499 24.6986Z" fill="white"/>
</g>
<defs>
<filter id="filter0_dd_309_12791" x="4" y="6.04273" width="89" height="88.9146" filterUnits="userSpaceOnUse" color-interpolation-filters="sRGB">
<feFlood flood-opacity="0" result="BackgroundImageFix"/>
<feColorMatrix in="SourceAlpha" type="matrix" values="0 0 0 0 0 0 0 0 0 0 0 0 0 0 0 0 0 0 127 0" result="hardAlpha"/>
<feOffset dy="2"/>
<feGaussianBlur stdDeviation="1"/>
<feColorMatrix type="matrix" values="0 0 0 0 0.150486 0 0 0 0 0.458846 0 0 0 0 0.820833 0 0 0 0.04 0"/>
<feBlend mode="normal" in2="BackgroundImageFix" result="effect1_dropShadow_309_12791"/>
<feColorMatrix in="SourceAlpha" type="matrix" values="0 0 0 0 0 0 0 0 0 0 0 0 0 0 0 0 0 0 127 0" result="hardAlpha"/>
<feOffset dy="2"/>
<feGaussianBlur stdDeviation="3"/>
<feColorMatrix type="matrix" values="0 0 0 0 0 0 0 0 0 0 0 0 0 0 0 0 0 0 0.09 0"/>
<feBlend mode="normal" in2="effect1_dropShadow_309_12791" result="effect2_dropShadow_309_12791"/>
<feBlend mode="normal" in="SourceGraphic" in2="effect2_dropShadow_309_12791" result="shape"/>
</filter>
<clipPath id="clip0_309_12791">
<rect width="77" height="76.9145" fill="white" transform="translate(10 10.0427)"/>
</clipPath>
<clipPath id="clip1_309_12791">
<rect x="59" y="2" width="44" height="16" rx="8" transform="rotate(30 59 2)" fill="white"/>
</clipPath>
</defs>
</svg>
