<svg width="97" height="97" viewBox="0 0 97 97" fill="none" xmlns="http://www.w3.org/2000/svg">
<rect width="97" height="97" rx="10" fill="#F5F5F5"/>
<g filter="url(#filter0_dd_309_12635)">
<path d="M25.7635 34.124C38.3205 21.8296 58.6795 21.8296 71.2366 34.124L72.7478 35.6037C73.3757 36.2184 73.3757 37.2151 72.7478 37.8298L67.5781 42.8914C67.2642 43.1987 66.7552 43.1987 66.4413 42.8914L64.3616 40.8552C55.6015 32.2783 41.3986 32.2783 32.6385 40.8552L30.4113 43.0358C30.0974 43.3431 29.5884 43.3431 29.2745 43.0358L24.1048 37.9742C23.4769 37.3595 23.4769 36.3628 24.1048 35.7481L25.7635 34.124ZM81.9281 44.5919L86.5291 49.0968C87.157 49.7115 87.157 50.7081 86.5291 51.3229L65.7826 71.6357C65.1548 72.2505 64.1368 72.2505 63.509 71.6357C63.509 71.6357 63.509 71.6357 63.509 71.6357L48.7843 57.2191C48.6274 57.0654 48.3729 57.0654 48.2159 57.2191C48.2159 57.2191 48.2159 57.2191 48.2159 57.2191L33.4916 71.6357C32.8638 72.2505 31.8458 72.2505 31.218 71.6358C31.218 71.6357 31.218 71.6357 31.218 71.6357L10.4709 51.3226C9.84304 50.7079 9.84304 49.7112 10.4709 49.0965L15.072 44.5917C15.6998 43.9769 16.7178 43.9769 17.3456 44.5917L32.0704 59.0085C32.2274 59.1622 32.4819 59.1622 32.6388 59.0085C32.6388 59.0085 32.6389 59.0085 32.6389 59.0085L47.3629 44.5917C47.9908 43.9769 49.0087 43.9769 49.6366 44.5916C49.6366 44.5916 49.6366 44.5916 49.6366 44.5916L64.3614 59.0085C64.5184 59.1622 64.7729 59.1622 64.9298 59.0085L79.6544 44.5919C80.2823 43.9772 81.3002 43.9772 81.9281 44.5919Z" fill="#3B99FC"/>
</g>
<defs>
<filter id="filter0_dd_309_12635" x="4" y="20.9032" width="89" height="59.1936" filterUnits="userSpaceOnUse" color-interpolation-filters="sRGB">
<feFlood flood-opacity="0" result="BackgroundImageFix"/>
<feColorMatrix in="SourceAlpha" type="matrix" values="0 0 0 0 0 0 0 0 0 0 0 0 0 0 0 0 0 0 127 0" result="hardAlpha"/>
<feOffset dy="2"/>
<feGaussianBlur stdDeviation="1"/>
<feColorMatrix type="matrix" values="0 0 0 0 0.150486 0 0 0 0 0.458846 0 0 0 0 0.820833 0 0 0 0.04 0"/>
<feBlend mode="normal" in2="BackgroundImageFix" result="effect1_dropShadow_309_12635"/>
<feColorMatrix in="SourceAlpha" type="matrix" values="0 0 0 0 0 0 0 0 0 0 0 0 0 0 0 0 0 0 127 0" result="hardAlpha"/>
<feOffset dy="2"/>
<feGaussianBlur stdDeviation="3"/>
<feColorMatrix type="matrix" values="0 0 0 0 0 0 0 0 0 0 0 0 0 0 0 0 0 0 0.09 0"/>
<feBlend mode="normal" in2="effect1_dropShadow_309_12635" result="effect2_dropShadow_309_12635"/>
<feBlend mode="normal" in="SourceGraphic" in2="effect2_dropShadow_309_12635" result="shape"/>
</filter>
</defs>
</svg>
