<?xml version="1.0" encoding="UTF-8" standalone="no"?>
<svg
   xmlns:dc="http://purl.org/dc/elements/1.1/"
   xmlns:cc="http://creativecommons.org/ns#"
   xmlns:rdf="http://www.w3.org/1999/02/22-rdf-syntax-ns#"
   xmlns:svg="http://www.w3.org/2000/svg"
   xmlns="http://www.w3.org/2000/svg"
   xmlns:sodipodi="http://sodipodi.sourceforge.net/DTD/sodipodi-0.dtd"
   xmlns:inkscape="http://www.inkscape.org/namespaces/inkscape"
   version="1.1"
   id="svg2"
   xml:space="preserve"
   width="341.33334"
   height="341.33334"
   viewBox="0 0 341.33334 341.33334"
   sodipodi:docname="pluggy.ai"><metadata
     id="metadata8"><rdf:RDF><cc:Work
         rdf:about=""><dc:format>image/svg+xml</dc:format><dc:type
           rdf:resource="http://purl.org/dc/dcmitype/StillImage" /></cc:Work></rdf:RDF></metadata><defs
     id="defs6"><clipPath
       clipPathUnits="userSpaceOnUse"
       id="clipPath18"><path
         d="M 0,256 H 256 V 0 H 0 Z"
         id="path16" /></clipPath></defs><sodipodi:namedview
     pagecolor="#ffffff"
     bordercolor="#666666"
     borderopacity="1"
     objecttolerance="10"
     gridtolerance="10"
     guidetolerance="10"
     inkscape:pageopacity="0"
     inkscape:pageshadow="2"
     inkscape:window-width="640"
     inkscape:window-height="480"
     id="namedview4" /><g
     id="g10"
     inkscape:groupmode="layer"
     inkscape:label="pluggy"
     transform="matrix(1.3333333,0,0,-1.3333333,0,341.33333)"><g
       id="g12"><g
         id="g14"
         clip-path="url(#clipPath18)"><g
           id="g20"
           transform="translate(239.1597,149.1592)"><path
             d="m 0,0 c 0,44.638 -49.654,80.826 -110.904,80.826 -61.251,0 -111.804,-36.281 -111.804,-80.918 l -0.168,-10.362 v -79.893 c 0,-15.268 12.371,-27.643 27.639,-27.643 h 168.154 c 15.266,0 27.64,12.375 27.64,27.643 v 79.893"
             style="fill:#d3212b;fill-opacity:1;fill-rule:nonzero;stroke:none"
             id="path22" /></g><g
           id="g24"
           transform="translate(127.9985,249.7451)"><path
             d="M 0,0 C -7.092,0 -15.759,2.34 -21.059,6.255 V -21.771 H 21.058 V 6.255 C 15.762,2.34 7.092,0 0,0"
             style="fill:#d3212b;fill-opacity:1;fill-rule:nonzero;stroke:none"
             id="path26" /></g><g
           id="g28"
           transform="translate(209.7109,44.1768)"><path
             d="m 0,0 h -163.653 c -9.517,0 -17.232,7.715 -17.232,17.232 V 57.368 H 17.232 V 17.232 C 17.232,7.715 9.518,0 0,0"
             style="fill:#ffffff;fill-opacity:1;fill-rule:nonzero;stroke:none"
             id="path30" /></g><g
           id="g32"
           transform="translate(101.0972,15.7168)"><path
             d="M 0,0 H -8.012 V 15.637 H -35.655 V -3.135 c 0,-6.95 5.636,-12.582 12.583,-12.582 H 0 c 4.34,0 7.856,3.517 7.856,7.86 C 7.856,-3.521 4.34,0 0,0"
             style="fill:#d3212b;fill-opacity:1;fill-rule:nonzero;stroke:none"
             id="path34" /></g><g
           id="g36"
           transform="translate(200.0649,15.7168)"><path
             d="M 0,0 H -8.011 V 15.637 H -35.654 V -3.135 c 0,-6.95 5.635,-12.582 12.582,-12.582 H 0 c 4.34,0 7.856,3.517 7.856,7.86 C 7.856,-3.521 4.34,0 0,0"
             style="fill:#d3212b;fill-opacity:1;fill-rule:nonzero;stroke:none"
             id="path38" /></g><g
           id="g40"
           transform="translate(78.6826,115.6367)"><path
             d="m 0,0 v 0 c 7.937,0 14.372,-6.435 14.372,-14.372 l 0.003,-20.033 c 0,-7.938 -6.435,-14.372 -14.372,-14.372 -7.937,0 -14.372,6.434 -14.372,14.372 l -0.003,20.033 C -14.372,-6.435 -7.937,0 0,0"
             style="fill:#d3212b;fill-opacity:1;fill-rule:nonzero;stroke:none"
             id="path42" /></g><g
           id="g44"
           transform="translate(93.0557,101.5156)"><path
             d="M 0,0 C -0.151,7.82 -6.512,14.121 -14.375,14.121 -22.228,14.121 -28.592,7.82 -28.744,0"
             style="fill:#ffffff;fill-opacity:1;fill-rule:nonzero;stroke:none"
             id="path46" /></g><g
           id="g48"
           transform="translate(177.624,115.6367)"><path
             d="m 0,0 v 0 c 7.937,0 14.372,-6.435 14.372,-14.372 l 0.003,-20.033 c 0,-7.938 -6.434,-14.372 -14.372,-14.372 -7.937,0 -14.372,6.434 -14.372,14.372 l -0.003,20.033 C -14.372,-6.435 -7.937,0 0,0"
             style="fill:#d3212b;fill-opacity:1;fill-rule:nonzero;stroke:none"
             id="path50" /></g><g
           id="g52"
           transform="translate(191.9976,101.5156)"><path
             d="M 0,0 C -0.152,7.82 -6.512,14.121 -14.375,14.121 -22.229,14.121 -28.592,7.82 -28.744,0"
             style="fill:#ffffff;fill-opacity:1;fill-rule:nonzero;stroke:none"
             id="path54" /></g></g></g></g></svg>
