<svg width="15" height="15" viewBox="0 0 13 13" fill="none" xmlns="http://www.w3.org/2000/svg">
<path d="M12.3526 0.967743L7.28003 4.73519L8.21807 2.51245L12.3526 0.967743Z" fill="#E2761B" stroke="#E2761B" stroke-linecap="round" stroke-linejoin="round"/>
<path d="M0.642334 0.967743L5.6741 4.77088L4.78194 2.51245L0.642334 0.967743Z" fill="#E4761B" stroke="#E4761B" stroke-linecap="round" stroke-linejoin="round"/>
<path d="M10.5275 9.70068L9.17651 11.7705L12.0671 12.5658L12.8981 9.74657L10.5275 9.70068Z" fill="#E4761B" stroke="#E4761B" stroke-linecap="round" stroke-linejoin="round"/>
<path d="M0.107056 9.74657L0.932938 12.5658L3.82353 11.7705L2.47255 9.70068L0.107056 9.74657Z" fill="#E4761B" stroke="#E4761B" stroke-linecap="round" stroke-linejoin="round"/>
<path d="M3.66047 6.20343L2.85498 7.42186L5.72518 7.54931L5.62322 4.465L3.66047 6.20343Z" fill="#E4761B" stroke="#E4761B" stroke-linecap="round" stroke-linejoin="round"/>
<path d="M9.33454 6.20343L7.3463 4.42931L7.28003 7.54931L10.1451 7.42186L9.33454 6.20343Z" fill="#E4761B" stroke="#E4761B" stroke-linecap="round" stroke-linejoin="round"/>
<path d="M3.82349 11.7705L5.54662 10.9293L4.058 9.76696L3.82349 11.7705Z" fill="#E4761B" stroke="#E4761B" stroke-linecap="round" stroke-linejoin="round"/>
<path d="M7.44824 10.9293L9.17648 11.7705L8.93687 9.76696L7.44824 10.9293Z" fill="#E4761B" stroke="#E4761B" stroke-linecap="round" stroke-linejoin="round"/>
<path d="M9.17648 11.7705L7.44824 10.9293L7.58589 12.056L7.5706 12.5301L9.17648 11.7705Z" fill="#D7C1B3" stroke="#D7C1B3" stroke-linecap="round" stroke-linejoin="round"/>
<path d="M3.82349 11.7705L5.42937 12.5301L5.41917 12.056L5.54662 10.9293L3.82349 11.7705Z" fill="#D7C1B3" stroke="#D7C1B3" stroke-linecap="round" stroke-linejoin="round"/>
<path d="M5.45486 9.02265L4.01721 8.59951L5.03172 8.13559L5.45486 9.02265Z" fill="#233447" stroke="#233447" stroke-linecap="round" stroke-linejoin="round"/>
<path d="M7.54004 9.02265L7.96318 8.13559L8.98278 8.59951L7.54004 9.02265Z" fill="#233447" stroke="#233447" stroke-linecap="round" stroke-linejoin="round"/>
<path d="M3.82351 11.7705L4.06822 9.70068L2.47253 9.74657L3.82351 11.7705Z" fill="#CD6116" stroke="#CD6116" stroke-linecap="round" stroke-linejoin="round"/>
<path d="M8.93176 9.70068L9.17647 11.7705L10.5274 9.74657L8.93176 9.70068Z" fill="#CD6116" stroke="#CD6116" stroke-linecap="round" stroke-linejoin="round"/>
<path d="M10.1451 7.42186L7.28003 7.54931L7.54513 9.02264L7.96826 8.13559L8.98787 8.59951L10.1451 7.42186Z" fill="#CD6116" stroke="#CD6116" stroke-linecap="round" stroke-linejoin="round"/>
<path d="M4.01733 8.59951L5.03694 8.13559L5.45498 9.02264L5.72518 7.54931L2.85498 7.42186L4.01733 8.59951Z" fill="#CD6116" stroke="#CD6116" stroke-linecap="round" stroke-linejoin="round"/>
<path d="M2.85486 7.42186L4.058 9.76696L4.01721 8.59951L2.85486 7.42186Z" fill="#E4751F" stroke="#E4751F" stroke-linecap="round" stroke-linejoin="round"/>
<path d="M8.98787 8.59951L8.93689 9.76696L10.1451 7.42186L8.98787 8.59951Z" fill="#E4751F" stroke="#E4751F" stroke-linecap="round" stroke-linejoin="round"/>
<path d="M5.72515 7.54931L5.45496 9.02264L5.79143 10.7611L5.8679 8.47205L5.72515 7.54931Z" fill="#E4751F" stroke="#E4751F" stroke-linecap="round" stroke-linejoin="round"/>
<path d="M7.27998 7.54931L7.14233 8.46696L7.20351 10.7611L7.54508 9.02264L7.27998 7.54931Z" fill="#E4751F" stroke="#E4751F" stroke-linecap="round" stroke-linejoin="round"/>
<path d="M7.54506 9.02265L7.20349 10.7611L7.4482 10.9293L8.93682 9.76696L8.98781 8.59951L7.54506 9.02265Z" fill="#F6851B" stroke="#F6851B" stroke-linecap="round" stroke-linejoin="round"/>
<path d="M4.01721 8.59951L4.058 9.76696L5.54662 10.9293L5.79133 10.7611L5.45486 9.02265L4.01721 8.59951Z" fill="#F6851B" stroke="#F6851B" stroke-linecap="round" stroke-linejoin="round"/>
<path d="M7.57055 12.5301L7.58584 12.056L7.45839 11.9438H5.53643L5.41917 12.056L5.42937 12.5301L3.82349 11.7705L4.38427 12.2293L5.52113 13.0195H7.47368L8.61564 12.2293L9.17643 11.7705L7.57055 12.5301Z" fill="#C0AD9E" stroke="#C0AD9E" stroke-linecap="round" stroke-linejoin="round"/>
<path d="M7.44821 10.9293L7.2035 10.7611H5.79135L5.54664 10.9293L5.41919 12.056L5.53644 11.9438H7.45841L7.58586 12.056L7.44821 10.9293Z" fill="#161616" stroke="#161616" stroke-linecap="round" stroke-linejoin="round"/>
<path d="M12.5667 4.9799L13 2.8999L12.3526 0.967743L7.44824 4.60774L9.33452 6.20343L12.0008 6.98343L12.5922 6.29519L12.3373 6.11166L12.7451 5.73951L12.429 5.4948L12.8369 5.18382L12.5667 4.9799Z" fill="#763D16" stroke="#763D16" stroke-linecap="round" stroke-linejoin="round"/>
<path d="M0 2.8999L0.433333 4.9799L0.158039 5.18382L0.565883 5.4948L0.254902 5.73951L0.662745 6.11166L0.407843 6.29519L0.994118 6.98343L3.66039 6.20343L5.54667 4.60774L0.642353 0.967743L0 2.8999Z" fill="#763D16" stroke="#763D16" stroke-linecap="round" stroke-linejoin="round"/>
<path d="M12.0008 6.98343L9.33454 6.20343L10.1451 7.42186L8.93689 9.76696L10.5275 9.74657H12.8981L12.0008 6.98343Z" fill="#F6851B" stroke="#F6851B" stroke-linecap="round" stroke-linejoin="round"/>
<path d="M3.66039 6.20343L0.994114 6.98343L0.107056 9.74657H2.47255L4.05804 9.76696L2.8549 7.42186L3.66039 6.20343Z" fill="#F6851B" stroke="#F6851B" stroke-linecap="round" stroke-linejoin="round"/>
<path d="M7.28002 7.54931L7.44826 4.60775L8.22316 2.51245H4.78198L5.54669 4.60775L5.72512 7.54931L5.7863 8.47716L5.79139 10.7611H7.20355L7.21375 8.47716L7.28002 7.54931Z" fill="#F6851B" stroke="#F6851B" stroke-linecap="round" stroke-linejoin="round"/>
</svg>
