<svg width="13" height="13" viewBox="0 0 13 13" fill="none" xmlns="http://www.w3.org/2000/svg">
<path d="M10.4173 0.683208L7.70477 4.70873C7.5172 4.98287 7.87791 5.31473 8.13762 5.08387L10.8069 2.7609C10.879 2.70319 10.98 2.74647 10.98 2.84747V10.105C10.98 10.206 10.8502 10.2492 10.7925 10.1771L2.71254 0.510067C2.45283 0.192642 2.07769 0.0195007 1.65927 0.0195007H1.3707C0.620422 0.0195007 0 0.639922 0 1.40463V11.6199C0 12.3847 0.620422 13.0051 1.38513 13.0051C1.86127 13.0051 2.30855 12.7598 2.56826 12.3414L5.2808 8.31584C5.46837 8.0417 5.10766 7.70985 4.84795 7.9407L2.17869 10.2492C2.10655 10.307 2.00555 10.2637 2.00555 10.1627V2.91961C2.00555 2.81861 2.13541 2.77533 2.19312 2.84747L10.273 12.5145C10.5327 12.8319 10.9223 13.0051 11.3263 13.0051H11.6149C12.3796 13.0051 13 12.3847 13 11.6199V1.40463C13 0.639922 12.3796 0.0195007 11.6149 0.0195007C11.1243 0.0195007 10.677 0.264784 10.4173 0.683208Z" fill="black"/>
</svg>
