<svg width="19" height="18" viewBox="0 0 19 18" fill="none" xmlns="http://www.w3.org/2000/svg">
<path d="M9.66675 16.5C13.8089 16.5 17.1667 13.1421 17.1667 9C17.1667 4.85786 13.8089 1.5 9.66675 1.5C5.52461 1.5 2.16675 4.85786 2.16675 9C2.16675 13.1421 5.52461 16.5 9.66675 16.5Z" stroke="#747376" stroke-width="1.5" stroke-linecap="round" stroke-linejoin="round"/>
<path d="M7.48413 6.74994C7.66046 6.24869 8.0085 5.82602 8.4666 5.55679C8.9247 5.28756 9.4633 5.18914 9.98701 5.27897C10.5107 5.3688 10.9857 5.64108 11.3279 6.04758C11.6701 6.45409 11.8574 6.96858 11.8566 7.49994C11.8566 8.99994 9.60663 9.74994 9.60663 9.74994" stroke="#747376" stroke-width="1.5" stroke-linecap="round" stroke-linejoin="round"/>
<path d="M9.66675 12.75H9.67675" stroke="#747376" stroke-width="1.5" stroke-linecap="round" stroke-linejoin="round"/>
</svg>
