<svg width="13" height="13" viewBox="0 0 18 18" fill="none" xmlns="http://www.w3.org/2000/svg">
<path d="M16.1973 1.5L14.5918 3.07687M8.48301 9.07685L11.7822 5.83639M11.7822 5.83639L14.1904 8.20169L17 5.44217L14.5918 3.07687M11.7822 5.83639L14.5918 3.07687M8.48301 9.07685C8.89749 9.47853 9.22698 9.95677 9.45251 10.484C9.67804 11.0113 9.79515 11.5772 9.7971 12.1491C9.79905 12.721 9.6858 13.2876 9.46388 13.8164C9.24195 14.3451 8.91573 14.8255 8.50399 15.2299C8.09226 15.6343 7.60315 15.9547 7.06482 16.1727C6.52649 16.3907 5.94958 16.5019 5.36731 16.5C4.78503 16.4981 4.20889 16.383 3.67206 16.1615C3.13523 15.94 2.64832 15.6164 2.23935 15.2093C1.43512 14.3914 0.990108 13.2961 1.00017 12.1591C1.01023 11.0221 1.47455 9.93446 2.29313 9.13046C3.11171 8.32646 4.21906 7.87041 5.37667 7.86053C6.53427 7.85065 7.64952 8.28773 8.4822 9.07764L8.48301 9.07685Z" stroke="#747376" stroke-width="1.5" stroke-linecap="round" stroke-linejoin="round"/>
</svg>
