<svg width="16" height="15" viewBox="0 0 16 15" fill="none" xmlns="http://www.w3.org/2000/svg">
<path d="M10.9375 6.86675C10.9375 6.01806 10.5898 5.20412 9.97095 4.60401C9.35208 4.00389 8.51271 3.66675 7.6375 3.66675C6.76229 3.66675 5.92292 4.00389 5.30405 4.60401C4.68518 5.20412 4.3375 6.01806 4.3375 6.86675C4.3375 10.6001 2.6875 11.6667 2.6875 11.6667H12.5875C12.5875 11.6667 10.9375 10.6001 10.9375 6.86675Z" fill="#747376" stroke="#747376" stroke-linecap="round" stroke-linejoin="round"/>
<path d="M8.58903 13.8C8.49234 13.9617 8.35355 14.0959 8.18656 14.1891C8.01957 14.2824 7.83024 14.3315 7.63753 14.3315C7.44483 14.3315 7.2555 14.2824 7.08851 14.1891C6.92152 14.0959 6.78273 13.9617 6.68604 13.8" stroke="#747376" stroke-linecap="round" stroke-linejoin="round"/>
</svg>
