<svg width="12" height="13" viewBox="0 0 12 13" fill="none" xmlns="http://www.w3.org/2000/svg">
<path d="M7.6498 8.78806C7.46226 8.9756 7.3569 9.22995 7.3569 9.49517V10.576C7.3569 10.8261 7.25757 11.0659 7.08076 11.2427C6.71257 11.6109 6.11562 11.6109 5.74743 11.2427L4.76418 10.2595C4.37365 9.86894 3.74049 9.86894 3.34996 10.2595L1.22864 12.3808L0.285836 12.3808L0.285835 11.438L2.40716 9.31666C2.79768 8.92613 2.79768 8.29297 2.40716 7.90244L1.42391 6.91919C1.05572 6.551 1.05572 5.95405 1.42391 5.58586C1.60072 5.40905 1.84052 5.30972 2.09057 5.30972L3.17145 5.30972C3.43667 5.30972 3.69102 5.20436 3.87856 5.01682L6.6498 2.24559C6.77997 2.11541 6.77997 1.90436 6.6498 1.77418C6.51962 1.64401 6.51962 1.43295 6.6498 1.30278L6.8855 1.06708C7.14585 0.806727 7.56796 0.806727 7.82831 1.06708L11.5995 4.83831C11.8599 5.09866 11.8599 5.52077 11.5995 5.78112L11.3638 6.01682C11.2337 6.147 11.0226 6.147 10.8924 6.01682C10.7623 5.88665 10.5512 5.88665 10.421 6.01682L7.6498 8.78806ZM3.969 6.65322C3.62749 6.65322 3.45646 7.06612 3.69794 7.30761L5.35901 8.96868C5.60049 9.21016 6.0134 9.03913 6.0134 8.69762C6.0134 8.59595 6.05379 8.49845 6.12568 8.42656L9.00682 5.54542C9.39734 5.15489 9.39734 4.52173 9.00682 4.13121L8.53541 3.6598C8.14489 3.26928 7.51172 3.26928 7.1212 3.6598L4.24006 6.54094C4.16817 6.61283 4.07067 6.65322 3.969 6.65322Z" fill="#E3E3E3"/>
</svg>
