<svg width="14" height="12" viewBox="0 0 14 12" fill="none" xmlns="http://www.w3.org/2000/svg">
<path d="M7.31369 5.5036C7.31369 5.27743 7.14537 4.76252 6.50261 4.76252C5.85985 4.76252 4.91086 5.76923 3.98229 6.11538L1.73756 1.2275H1.1189C0.954822 1.2275 0.797465 1.16283 0.681444 1.04773C0.565424 0.932633 0.500244 0.776524 0.500244 0.613748C0.500244 0.450972 0.565424 0.294863 0.681444 0.179763C0.797465 0.0646625 0.954822 0 1.1189 0H2.13366C2.25023 3.32483e-05 2.3644 0.0329464 2.46284 0.0949012C2.56128 0.156856 2.63994 0.245299 2.68964 0.349916L3.10502 1.2275H12.2617C12.369 1.2276 12.4744 1.25548 12.5675 1.30838C12.6606 1.36129 12.7382 1.43738 12.7925 1.52913C12.8469 1.62089 12.8762 1.72513 12.8775 1.83156C12.8788 1.93799 12.8521 2.04291 12.8 2.13596L10.5809 6.12652C9.70355 5.77082 9.00535 4.76252 8.12477 4.76252C7.48261 4.76252 7.31369 5.27743 7.31369 5.5036Z" fill="#747376"/>
<path d="M13.4998 5.32983C10.7769 9.10418 9.7682 5.59108 8.12474 5.59108C7.48198 5.59108 7.31366 6.10599 7.31366 6.33216C7.31366 6.10599 7.14493 5.59108 6.50258 5.59108C4.85892 5.59108 3.85059 9.10418 1.12771 5.32983C1.07548 9.46924 5.04331 10.4477 7.31426 7.85895C9.5842 10.4477 13.5522 9.46924 13.4998 5.32983Z" fill="#747376"/>
<path d="M3.42334 9.83105C3.28483 9.94645 3.17349 10.0905 3.09715 10.2532C3.0208 10.4159 2.98131 10.5932 2.98145 10.7726C2.98145 11.4477 3.53201 12.0001 4.21253 12.0001C4.45759 12.0004 4.69722 11.9285 4.90096 11.7934C5.1047 11.6583 5.26335 11.4662 5.35675 11.2414C5.45015 11.0167 5.47407 10.7694 5.42548 10.5311C5.37689 10.2928 5.25799 10.0743 5.08387 9.90319C4.51724 10.0222 3.94679 9.99705 3.42334 9.83105Z" fill="#747376"/>
<path d="M9.53314 9.90094C9.41732 10.0151 9.32543 10.1509 9.26276 10.3005C9.20009 10.4501 9.16787 10.6105 9.16797 10.7725C9.16797 11.4477 9.71853 12 10.3993 12C10.6531 12.0003 10.9008 11.923 11.1088 11.7787C11.3168 11.6343 11.475 11.43 11.5618 11.1933C11.6487 10.9567 11.6599 10.6993 11.5941 10.4561C11.5283 10.2129 11.3887 9.99568 11.1941 9.83398C10.6702 9.99818 10.1012 10.0217 9.53314 9.90094Z" fill="#747376"/>
</svg>
