<svg width="217" height="217" viewBox="0 0 217 217" fill="none" xmlns="http://www.w3.org/2000/svg">
<g clip-path="url(#clip0_5_16)">
<path d="M130.909 95.9505C130.909 100.471 129.565 104.89 127.048 108.649C124.531 112.407 120.953 115.337 116.767 117.067C112.581 118.797 107.975 119.249 103.531 118.368C99.0867 117.486 95.0047 115.309 91.8008 112.112C88.5969 108.916 86.415 104.843 85.5311 100.41C84.6471 95.9758 85.1008 91.3802 86.8348 87.2038C88.5687 83.0273 91.505 79.4577 95.2724 76.9462C99.0398 74.4347 103.469 73.0942 108 73.0942C114.076 73.0942 119.903 75.5023 124.199 79.7887C128.495 84.075 130.909 89.8886 130.909 95.9505ZM144 95.9505C144.001 101.241 142.827 106.466 140.564 111.251C138.3 116.035 135.003 120.26 130.909 123.623V154.724C130.909 155.59 130.564 156.42 129.951 157.033C129.337 157.645 128.504 157.989 127.636 157.989C127.129 157.978 126.628 157.867 126.164 157.662L108 148.561L89.8364 157.662C89.3348 157.909 88.7782 158.024 88.2196 157.996C87.661 157.967 87.119 157.796 86.6454 157.499C86.1681 157.21 85.7739 156.802 85.5015 156.316C85.229 155.829 85.0876 155.281 85.0909 154.724V123.623C80.4106 119.771 76.7821 114.801 74.5425 109.175C72.3028 103.549 71.5247 97.4499 72.2803 91.4437C73.0359 85.4375 75.3008 79.7193 78.8646 74.8202C82.4284 69.9212 87.1755 66.0002 92.6648 63.4216C98.1541 60.843 104.208 59.6905 110.263 60.071C116.318 60.4515 122.179 62.3527 127.301 65.5981C132.422 68.8434 136.639 73.3276 139.558 78.6341C142.478 83.9406 144.006 89.8971 144 95.9505ZM137.455 95.9505C137.455 90.1383 135.727 84.4567 132.491 79.6241C129.254 74.7915 124.654 71.025 119.272 68.8008C113.89 66.5766 107.967 65.9946 102.254 67.1285C96.5401 68.2624 91.2918 71.0612 87.1725 75.171C83.0532 79.2808 80.2479 84.517 79.1114 90.2174C77.9749 95.9179 78.5582 101.827 80.7875 107.196C83.0169 112.566 86.7921 117.156 91.6359 120.385C96.4797 123.614 102.174 125.337 108 125.337C115.808 125.326 123.294 122.227 128.816 116.718C134.337 111.209 137.444 103.741 137.455 95.9505V95.9505Z" fill="#D9304F"/>
<path d="M37.1823 156.459L17.2745 166.741L14.4351 161.243C10.8118 154.228 12.2348 149.049 18.7041 145.708C21.7768 144.121 24.7523 143.821 27.6304 144.808C30.4945 145.791 32.7702 147.916 34.4576 151.183L37.1823 156.459ZM18.18 163.318L33.8675 155.216L32.3331 152.245C30.9851 149.635 29.2371 147.965 27.0891 147.233C24.9411 146.502 22.5853 146.799 20.0216 148.123C14.922 150.757 13.7728 154.785 16.5739 160.209L18.18 163.318Z" fill="#D9304F"/>
<path d="M23.0759 114.229L23.5546 117.096L17.7504 120.473L19.3153 129.843L25.8788 131.012L26.3601 133.894L2.84432 129.109L2.39647 126.427L23.0759 114.229ZM15.5648 121.709L6.72747 126.749C6.43811 126.914 5.96381 127.109 5.30458 127.336L5.31488 127.397C5.95877 127.395 6.47167 127.431 6.85358 127.505L16.844 129.369L15.5648 121.709Z" fill="#D9304F"/>
<path d="M15.0834 102.549L23.4953 103.529L23.1916 106.136L0.935803 103.544L1.64796 97.4293C1.9251 95.0496 2.71901 93.2754 4.02967 92.1066C5.34154 90.9275 7.05284 90.4609 9.16358 90.7067C11.2743 90.9526 12.9173 91.8832 14.0924 93.4988C15.2688 95.104 15.713 97.143 15.425 99.6159L15.0834 102.549ZM3.59852 101.212L12.7243 102.274L13.0425 99.5429C13.2521 97.7426 13.0031 96.324 12.2954 95.2873C11.5785 94.239 10.4699 93.6275 8.96962 93.4527C6.03115 93.1105 4.35947 94.6777 3.95459 98.1542L3.59852 101.212Z" fill="#D9304F"/>
<path d="M20.0533 78.4547L27.9169 81.5983L26.9425 84.0357L6.13715 75.7185L8.42235 70.0021C9.31168 67.7774 10.5416 66.2723 12.1121 65.4866C13.6865 64.6913 15.4603 64.688 17.4335 65.4768C19.4066 66.2656 20.7493 67.5933 21.4615 69.4598C22.1776 71.3166 22.0736 73.4008 21.1495 75.7125L20.0533 78.4547ZM9.31686 74.1627L17.8479 77.5731L18.8687 75.0195C19.5415 73.3365 19.6718 71.9022 19.2596 70.7165C18.8415 69.5174 17.9312 68.6374 16.5287 68.0768C13.7817 66.9786 11.7587 68.0545 10.4595 71.3045L9.31686 74.1627Z" fill="#D9304F"/>
<path d="M43.2779 54.2932L36.4516 63.7029L18.3152 50.5457L19.8567 48.4209L36.0706 60.1835L41.3555 52.8986L43.2779 54.2932Z" fill="#D9304F"/>
<path d="M57.7237 40.8237L48.675 48.5137L34.1651 31.4403L42.8328 24.074L44.3708 25.8837L37.7033 31.5501L42.5299 37.2293L48.6973 31.988L50.2252 33.7858L44.0578 39.0272L49.1372 45.0041L56.1857 39.0139L57.7237 40.8237Z" fill="#D9304F"/>
<path d="M68.4663 11.9661L62.6496 14.7963L71.4136 32.8086L69.0532 33.9571L60.2891 15.9448L54.4864 18.7682L53.4473 16.6325L67.4272 9.83049L68.4663 11.9661Z" fill="#D9304F"/>
<path d="M84.0851 26.6346L83.4796 23.6007C83.8881 23.8379 84.3568 24.0311 84.8859 24.1804C85.4251 24.3277 85.9777 24.4352 86.5435 24.5028C87.1176 24.5582 87.6845 24.5779 88.2442 24.5617C88.804 24.5456 89.3137 24.4917 89.7734 24.3999C91.3567 24.0839 92.4785 23.5573 93.1386 22.8201C93.8069 22.0706 94.031 21.1442 93.8108 20.041C93.6925 19.4485 93.4568 18.9592 93.1035 18.5729C92.7604 18.1846 92.3234 17.8576 91.7924 17.5918C91.2593 17.3158 90.6434 17.0776 89.9449 16.8771C89.2544 16.6644 88.5099 16.4465 87.7112 16.2235C86.8676 15.9883 86.0741 15.7377 85.3305 15.4718C84.587 15.206 83.9222 14.8819 83.3361 14.4997C82.7499 14.1174 82.2537 13.6535 81.8474 13.1079C81.4492 12.55 81.1686 11.8625 81.0055 11.0453C80.8057 10.0442 80.852 9.13205 81.1444 8.30889C81.4349 7.47551 81.8897 6.7474 82.5089 6.12457C83.1282 5.50173 83.8689 4.98211 84.7312 4.56571C85.6036 4.14726 86.5149 3.84323 87.4649 3.65361C89.6305 3.22137 91.2607 3.16686 92.3556 3.49006L92.9336 6.38607C91.4569 5.74607 89.7021 5.62893 87.6693 6.03467C87.1074 6.1468 86.5578 6.32023 86.0205 6.55495C85.4811 6.77946 85.0182 7.06834 84.632 7.42161C84.2457 7.77487 83.9565 8.18844 83.7643 8.66231C83.5721 9.13619 83.5361 9.67447 83.6564 10.2772C83.7685 10.839 83.9675 11.3038 84.2534 11.6717C84.5495 12.0375 84.9355 12.3481 85.4113 12.6037C85.8872 12.8592 86.4479 13.0872 87.0934 13.2877C87.7491 13.4861 88.4977 13.6978 89.3393 13.9229C90.2033 14.1541 91.0306 14.4138 91.8211 14.7022C92.6116 14.9905 93.3244 15.3422 93.9595 15.7571C94.5947 16.1721 95.1287 16.6657 95.5616 17.2378C96.0047 17.808 96.3078 18.5017 96.4709 19.3189C96.687 20.4017 96.656 21.3639 96.3778 22.2054C96.1078 23.0347 95.6571 23.7567 95.0256 24.3714C94.4043 24.984 93.6442 25.4862 92.7452 25.8781C91.8482 26.2802 90.8787 26.5852 89.8368 26.7932C89.4895 26.8625 89.0543 26.9175 88.5313 26.9581C88.0104 27.009 87.4731 27.0313 86.9195 27.0249C86.3679 27.0288 85.8367 27.002 85.326 26.9446C84.8235 26.875 84.4099 26.7716 84.0851 26.6346Z" fill="#D9304F"/>
<path d="M168.382 47.7502C166.548 47.3709 164.678 46.3957 162.774 44.8244C160.316 42.7958 159 40.3801 158.828 37.5774C158.656 34.7747 159.63 32.0879 161.752 29.5168C164.032 26.7529 166.707 25.2055 169.776 24.8745C172.844 24.5436 175.656 25.4322 178.211 27.5405C179.85 28.8929 181.012 30.2504 181.698 31.6128L179.918 33.7701C179.251 32.0581 178.17 30.5856 176.675 29.3525C174.691 27.7149 172.533 27.0485 170.202 27.3532C167.879 27.6646 165.802 28.929 163.972 31.1465C162.235 33.2516 161.424 35.4048 161.539 37.6063C161.668 39.8063 162.669 41.6787 164.541 43.2234C166.276 44.6554 168.097 45.5095 170.003 45.7857L168.382 47.7502Z" fill="#D9304F"/>
<path d="M180.899 65.2408L174.074 55.523L192.41 42.6454L198.947 51.954L197.004 53.319L191.975 46.1585L185.876 50.4421L190.528 57.0655L188.597 58.4215L183.945 51.7981L177.526 56.3061L182.842 63.8758L180.899 65.2408Z" fill="#D9304F"/>
<path d="M190.774 88.2978L189.708 85.3601L194.335 79.6932C194.766 79.1712 195.117 78.6891 195.389 78.2471C195.671 77.8014 195.876 77.3726 196.003 76.9607C196.134 76.5586 196.186 76.1519 196.159 75.7407C196.145 75.3358 196.055 74.9032 195.888 74.4429L195.153 72.4159L186.192 75.6654L185.297 73.1977L206.361 65.5585L208.641 71.8454C208.975 72.7659 209.165 73.6555 209.21 74.5144C209.269 75.3795 209.167 76.1812 208.903 76.9197C208.642 77.6679 208.218 78.3314 207.63 78.9103C207.052 79.4856 206.293 79.9437 205.353 80.2847C204.618 80.551 203.902 80.6835 203.203 80.682C202.518 80.6867 201.861 80.5705 201.232 80.3332C200.606 80.1057 200.018 79.7653 199.465 79.3118C198.926 78.8646 198.434 78.3173 197.989 77.6699L197.93 77.6912C197.901 78.1006 197.83 78.4699 197.717 78.799C197.617 79.1345 197.473 79.4694 197.284 79.8039C197.095 80.1383 196.865 80.4821 196.594 80.8352C196.336 81.1945 196.029 81.5996 195.672 82.0505L190.774 88.2978ZM205.024 68.836L197.385 71.6061L198.6 74.9552C198.824 75.5721 199.123 76.1063 199.497 76.5579C199.875 77.0192 200.304 77.3787 200.786 77.6363C201.277 77.8903 201.811 78.0345 202.388 78.0688C202.976 78.0996 203.583 78.0013 204.21 77.774C205.336 77.3656 206.079 76.6805 206.439 75.7188C206.813 74.7633 206.75 73.5952 206.249 72.2144L205.024 68.836Z" fill="#D9304F"/>
<path d="M213.192 107.698L212.679 101.249L192.711 102.836L192.503 100.219L212.471 98.6327L211.96 92.1998L214.328 92.0117L215.559 107.51L213.192 107.698Z" fill="#D9304F"/>
<path d="M192.196 120.483L192.525 117.878L214.755 120.68L214.427 123.285L192.196 120.483Z" fill="#D9304F"/>
<path d="M205.808 147.72L208.573 139.418L201.22 136.969L198.662 144.648L196.424 143.903L198.982 136.224L189.568 133.088L190.398 130.598L211.656 137.678L208.061 148.47L205.808 147.72Z" fill="#D9304F"/>
<path d="M181.498 151.745L182.797 149.464L202.267 160.551L200.968 162.832L181.498 151.745Z" fill="#D9304F"/>
<path d="M166.567 172.361C167.036 170.548 168.103 168.729 169.766 166.905C171.914 164.55 174.392 163.355 177.2 163.322C180.008 163.288 182.643 164.395 185.106 166.641C187.754 169.055 189.167 171.803 189.346 174.885C189.524 177.966 188.498 180.73 186.266 183.178C184.834 184.748 183.42 185.842 182.026 186.459L179.959 184.574C181.702 183.993 183.226 182.986 184.532 181.554C186.266 179.653 187.038 177.531 186.849 175.188C186.653 172.852 185.493 170.715 183.368 168.778C181.352 166.939 179.241 166.022 177.037 166.028C174.833 166.048 172.914 166.955 171.278 168.749C169.762 170.411 168.819 172.187 168.449 174.077L166.567 172.361Z" fill="#D9304F"/>
<path d="M143.783 186.653L146.28 185.166L151.535 189.347L159.697 184.485L158.402 177.945L160.912 176.45L164.995 200.098L162.659 201.489L143.783 186.653ZM153.481 190.934L161.386 197.337C161.645 197.547 161.999 197.918 162.449 198.45L162.503 198.418C162.267 197.819 162.114 197.328 162.044 196.945L160.152 186.96L153.481 190.934Z" fill="#D9304F"/>
<path d="M128.527 212.225L134.779 210.562L129.628 191.204L132.165 190.529L137.315 209.887L143.552 208.228L144.162 210.523L129.138 214.52L128.527 212.225Z" fill="#D9304F"/>
<path d="M103.07 194.008L114.945 193.908L115.134 216.313L103.76 216.41L103.74 214.035L112.489 213.96L112.426 206.508L104.333 206.576L104.313 204.217L112.406 204.148L112.34 196.305L103.09 196.383L103.07 194.008Z" fill="#D9304F"/>
</g>
<defs>
<clipPath id="clip0_5_16">
<rect width="217" height="217" fill="white"/>
</clipPath>
</defs>
</svg>
